<mxfile host="app.diagrams.net" modified="2021-04-27T04:37:42.632Z" agent="5.0 (Windows NT 10.0; Win64; x64) AppleWebKit/537.36 (KHTML, like Gecko) Chrome/90.0.4430.85 Safari/537.36" etag="B5_62zSd5Mq2LzP8gCo0" version="14.6.6" type="github">
  <diagram id="sSMh7Mj8uq1PbPDicRrX" name="Page-1">
    <mxGraphModel dx="3279" dy="935" grid="1" gridSize="10" guides="1" tooltips="1" connect="1" arrows="1" fold="1" page="1" pageScale="1" pageWidth="827" pageHeight="1169" math="0" shadow="0">
      <root>
        <mxCell id="0" />
        <mxCell id="1" parent="0" />
        <mxCell id="UU9deluZrK-pCLJk1Hoc-5" style="edgeStyle=orthogonalEdgeStyle;rounded=0;orthogonalLoop=1;jettySize=auto;html=1;" parent="1" source="UU9deluZrK-pCLJk1Hoc-1" target="UU9deluZrK-pCLJk1Hoc-15" edge="1">
          <mxGeometry relative="1" as="geometry">
            <Array as="points">
              <mxPoint x="450" y="350" />
              <mxPoint x="450" y="420" />
            </Array>
          </mxGeometry>
        </mxCell>
        <mxCell id="4qVqTRqzKTblFJhMyqPV-104" style="edgeStyle=orthogonalEdgeStyle;rounded=0;orthogonalLoop=1;jettySize=auto;html=1;startArrow=none;startFill=0;endArrow=classic;endFill=1;" parent="1" source="4qVqTRqzKTblFJhMyqPV-179" target="4qVqTRqzKTblFJhMyqPV-105" edge="1">
          <mxGeometry relative="1" as="geometry">
            <mxPoint x="700" y="339" as="targetPoint" />
          </mxGeometry>
        </mxCell>
        <mxCell id="UU9deluZrK-pCLJk1Hoc-1" value="&lt;b&gt;AWS ECS&lt;/b&gt;&lt;br&gt;AccoutingBalanceService" style="points=[[0,0,0],[0.25,0,0],[0.5,0,0],[0.75,0,0],[1,0,0],[0,1,0],[0.25,1,0],[0.5,1,0],[0.75,1,0],[1,1,0],[0,0.25,0],[0,0.5,0],[0,0.75,0],[1,0.25,0],[1,0.5,0],[1,0.75,0]];outlineConnect=0;fontColor=#232F3E;gradientColor=#F78E04;gradientDirection=north;fillColor=#D05C17;strokeColor=#ffffff;dashed=0;verticalLabelPosition=bottom;verticalAlign=top;align=center;html=1;fontSize=12;fontStyle=0;aspect=fixed;shape=mxgraph.aws4.resourceIcon;resIcon=mxgraph.aws4.ecs;" parent="1" vertex="1">
          <mxGeometry x="507" y="300" width="78" height="78" as="geometry" />
        </mxCell>
        <mxCell id="UU9deluZrK-pCLJk1Hoc-12" style="edgeStyle=orthogonalEdgeStyle;rounded=0;orthogonalLoop=1;jettySize=auto;html=1;" parent="1" source="UU9deluZrK-pCLJk1Hoc-2" target="UU9deluZrK-pCLJk1Hoc-11" edge="1">
          <mxGeometry relative="1" as="geometry">
            <Array as="points">
              <mxPoint x="270" y="330" />
              <mxPoint x="270" y="270" />
            </Array>
          </mxGeometry>
        </mxCell>
        <mxCell id="UU9deluZrK-pCLJk1Hoc-20" style="edgeStyle=orthogonalEdgeStyle;rounded=0;orthogonalLoop=1;jettySize=auto;html=1;" parent="1" target="UU9deluZrK-pCLJk1Hoc-19" edge="1">
          <mxGeometry relative="1" as="geometry">
            <mxPoint x="546" y="420" as="sourcePoint" />
            <Array as="points">
              <mxPoint x="546" y="500" />
              <mxPoint x="546" y="500" />
            </Array>
          </mxGeometry>
        </mxCell>
        <mxCell id="4qVqTRqzKTblFJhMyqPV-103" value="REST&lt;br&gt;GET /accounts/{id}" style="edgeLabel;html=1;align=center;verticalAlign=middle;resizable=0;points=[];" parent="UU9deluZrK-pCLJk1Hoc-20" vertex="1" connectable="0">
          <mxGeometry x="-0.2934" y="1" relative="1" as="geometry">
            <mxPoint x="63" y="55" as="offset" />
          </mxGeometry>
        </mxCell>
        <mxCell id="4qVqTRqzKTblFJhMyqPV-101" style="edgeStyle=orthogonalEdgeStyle;rounded=0;orthogonalLoop=1;jettySize=auto;html=1;startArrow=classic;startFill=1;endArrow=none;endFill=0;" parent="1" source="UU9deluZrK-pCLJk1Hoc-2" edge="1">
          <mxGeometry relative="1" as="geometry">
            <mxPoint x="10" y="339" as="targetPoint" />
          </mxGeometry>
        </mxCell>
        <mxCell id="4qVqTRqzKTblFJhMyqPV-102" value="REST&lt;br&gt;PUT /transactions" style="edgeLabel;html=1;align=center;verticalAlign=middle;resizable=0;points=[];" parent="4qVqTRqzKTblFJhMyqPV-101" vertex="1" connectable="0">
          <mxGeometry x="0.1122" relative="1" as="geometry">
            <mxPoint y="21" as="offset" />
          </mxGeometry>
        </mxCell>
        <mxCell id="UU9deluZrK-pCLJk1Hoc-2" value="&lt;b&gt;AWS ECS&lt;/b&gt;&lt;br&gt;AccoutingTransactionService" style="points=[[0,0,0],[0.25,0,0],[0.5,0,0],[0.75,0,0],[1,0,0],[0,1,0],[0.25,1,0],[0.5,1,0],[0.75,1,0],[1,1,0],[0,0.25,0],[0,0.5,0],[0,0.75,0],[1,0.25,0],[1,0.5,0],[1,0.75,0]];outlineConnect=0;fontColor=#232F3E;gradientColor=#F78E04;gradientDirection=north;fillColor=#D05C17;strokeColor=#ffffff;dashed=0;verticalLabelPosition=bottom;verticalAlign=top;align=center;html=1;fontSize=12;fontStyle=0;aspect=fixed;shape=mxgraph.aws4.resourceIcon;resIcon=mxgraph.aws4.ecs;" parent="1" vertex="1">
          <mxGeometry x="130" y="300" width="78" height="78" as="geometry" />
        </mxCell>
        <mxCell id="UU9deluZrK-pCLJk1Hoc-13" style="edgeStyle=orthogonalEdgeStyle;rounded=0;orthogonalLoop=1;jettySize=auto;html=1;" parent="1" source="UU9deluZrK-pCLJk1Hoc-11" target="UU9deluZrK-pCLJk1Hoc-1" edge="1">
          <mxGeometry relative="1" as="geometry">
            <Array as="points">
              <mxPoint x="450" y="270" />
              <mxPoint x="450" y="330" />
            </Array>
          </mxGeometry>
        </mxCell>
        <mxCell id="UU9deluZrK-pCLJk1Hoc-11" value="&lt;span style=&quot;color: rgb(0 , 0 , 0) ; font-size: 11px ; background-color: rgb(255 , 255 , 255)&quot;&gt;&lt;b&gt;Apache Kafka&lt;br&gt;&lt;/b&gt;accounting-transaction-created&lt;/span&gt;" style="outlineConnect=0;fontColor=#232F3E;gradientColor=none;strokeColor=#232F3E;fillColor=#ffffff;dashed=0;verticalLabelPosition=bottom;verticalAlign=top;align=center;html=1;fontSize=12;fontStyle=0;aspect=fixed;shape=mxgraph.aws4.resourceIcon;resIcon=mxgraph.aws4.topic;" parent="1" vertex="1">
          <mxGeometry x="330" y="240" width="60" height="60" as="geometry" />
        </mxCell>
        <mxCell id="UU9deluZrK-pCLJk1Hoc-16" style="edgeStyle=orthogonalEdgeStyle;rounded=0;orthogonalLoop=1;jettySize=auto;html=1;" parent="1" source="UU9deluZrK-pCLJk1Hoc-15" target="UU9deluZrK-pCLJk1Hoc-2" edge="1">
          <mxGeometry relative="1" as="geometry">
            <Array as="points">
              <mxPoint x="270" y="420" />
              <mxPoint x="270" y="350" />
            </Array>
          </mxGeometry>
        </mxCell>
        <mxCell id="UU9deluZrK-pCLJk1Hoc-15" value="&lt;b&gt;&lt;span style=&quot;color: rgb(0 , 0 , 0) ; font-size: 11px ; background-color: rgb(255 , 255 , 255)&quot;&gt;Apache Kafka&lt;/span&gt;&lt;br style=&quot;color: rgb(0 , 0 , 0) ; font-size: 11px&quot;&gt;&lt;/b&gt;&lt;span style=&quot;color: rgb(0 , 0 , 0) ; font-size: 11px ; background-color: rgb(255 , 255 , 255)&quot;&gt;accounting-transaction&lt;/span&gt;&lt;span style=&quot;color: rgb(0 , 0 , 0) ; font-size: 11px ; background-color: rgb(255 , 255 , 255)&quot;&gt;-failed&lt;br&gt;accounting-transaction-succedded&lt;br&gt;&lt;/span&gt;" style="outlineConnect=0;fontColor=#232F3E;gradientColor=none;strokeColor=#232F3E;fillColor=#ffffff;dashed=0;verticalLabelPosition=bottom;verticalAlign=top;align=center;html=1;fontSize=12;fontStyle=0;aspect=fixed;shape=mxgraph.aws4.resourceIcon;resIcon=mxgraph.aws4.topic;" parent="1" vertex="1">
          <mxGeometry x="330" y="390" width="60" height="60" as="geometry" />
        </mxCell>
        <mxCell id="4qVqTRqzKTblFJhMyqPV-164" style="edgeStyle=orthogonalEdgeStyle;rounded=0;orthogonalLoop=1;jettySize=auto;html=1;startArrow=none;startFill=0;endArrow=classic;endFill=1;exitX=1;exitY=0.5;exitDx=0;exitDy=0;exitPerimeter=0;" parent="1" source="UU9deluZrK-pCLJk1Hoc-19" target="4qVqTRqzKTblFJhMyqPV-165" edge="1">
          <mxGeometry relative="1" as="geometry">
            <mxPoint x="546" y="979.9999999999999" as="sourcePoint" />
            <mxPoint x="670" y="938.9999999999999" as="targetPoint" />
            <Array as="points" />
          </mxGeometry>
        </mxCell>
        <mxCell id="4qVqTRqzKTblFJhMyqPV-166" style="edgeStyle=orthogonalEdgeStyle;rounded=0;orthogonalLoop=1;jettySize=auto;html=1;startArrow=classic;startFill=1;endArrow=none;endFill=0;" parent="1" source="UU9deluZrK-pCLJk1Hoc-19" edge="1">
          <mxGeometry relative="1" as="geometry">
            <mxPoint x="380" y="898.9999999999999" as="targetPoint" />
          </mxGeometry>
        </mxCell>
        <mxCell id="4qVqTRqzKTblFJhMyqPV-167" value="REST&lt;br&gt;PUT /accounts/{id}" style="edgeLabel;html=1;align=center;verticalAlign=middle;resizable=0;points=[];" parent="4qVqTRqzKTblFJhMyqPV-166" vertex="1" connectable="0">
          <mxGeometry x="-0.2702" y="4" relative="1" as="geometry">
            <mxPoint x="-19" y="22" as="offset" />
          </mxGeometry>
        </mxCell>
        <mxCell id="UU9deluZrK-pCLJk1Hoc-19" value="&lt;b&gt;AWS ECS&lt;/b&gt;&lt;br&gt;AccoutingAccountService" style="points=[[0,0,0],[0.25,0,0],[0.5,0,0],[0.75,0,0],[1,0,0],[0,1,0],[0.25,1,0],[0.5,1,0],[0.75,1,0],[1,1,0],[0,0.25,0],[0,0.5,0],[0,0.75,0],[1,0.25,0],[1,0.5,0],[1,0.75,0]];outlineConnect=0;fontColor=#232F3E;gradientColor=#F78E04;gradientDirection=north;fillColor=#D05C17;strokeColor=#ffffff;dashed=0;verticalLabelPosition=bottom;verticalAlign=top;align=center;html=1;fontSize=12;fontStyle=0;aspect=fixed;shape=mxgraph.aws4.resourceIcon;resIcon=mxgraph.aws4.ecs;" parent="1" vertex="1">
          <mxGeometry x="507" y="859.9999999999999" width="78" height="78" as="geometry" />
        </mxCell>
        <mxCell id="4qVqTRqzKTblFJhMyqPV-107" style="edgeStyle=orthogonalEdgeStyle;rounded=0;orthogonalLoop=1;jettySize=auto;html=1;startArrow=none;startFill=0;endArrow=classic;endFill=1;entryX=0;entryY=0.5;entryDx=0;entryDy=0;entryPerimeter=0;" parent="1" source="4qVqTRqzKTblFJhMyqPV-105" target="4qVqTRqzKTblFJhMyqPV-108" edge="1">
          <mxGeometry relative="1" as="geometry">
            <mxPoint x="1279" y="339" as="targetPoint" />
          </mxGeometry>
        </mxCell>
        <mxCell id="4qVqTRqzKTblFJhMyqPV-105" value="&lt;b&gt;&lt;span style=&quot;color: rgb(0 , 0 , 0) ; font-size: 11px ; background-color: rgb(255 , 255 , 255)&quot;&gt;Apache Kafka&lt;/span&gt;&lt;br style=&quot;color: rgb(0 , 0 , 0) ; font-size: 11px&quot;&gt;&lt;/b&gt;&lt;span style=&quot;color: rgb(0 , 0 , 0) ; font-size: 11px ; background-color: rgb(255 , 255 , 255)&quot;&gt;accounting-journal-entry-created&lt;/span&gt;" style="outlineConnect=0;fontColor=#232F3E;gradientColor=none;strokeColor=#232F3E;fillColor=#ffffff;dashed=0;verticalLabelPosition=bottom;verticalAlign=top;align=center;html=1;fontSize=12;fontStyle=0;aspect=fixed;shape=mxgraph.aws4.resourceIcon;resIcon=mxgraph.aws4.topic;" parent="1" vertex="1">
          <mxGeometry x="1095" y="309" width="60" height="60" as="geometry" />
        </mxCell>
        <mxCell id="4qVqTRqzKTblFJhMyqPV-106" value="&lt;h1&gt;Regras de Validação de Saldo de Contas&lt;/h1&gt;&lt;p&gt;Contas de integração podem ter saldo durante o dia, porém precisam terminar o dia zeradas.&lt;/p&gt;&lt;p&gt;Determinadas contas podem aumentar ou diminuir o saldo durante o mês, porém precisam terminar o mês com saldo igual ou maior que o mês anterior.&lt;/p&gt;" style="text;html=1;strokeColor=none;fillColor=none;spacing=5;spacingTop=-20;whiteSpace=wrap;overflow=hidden;rounded=0;" parent="1" vertex="1">
          <mxGeometry x="480" y="1870" width="840" height="120" as="geometry" />
        </mxCell>
        <mxCell id="4qVqTRqzKTblFJhMyqPV-109" style="edgeStyle=orthogonalEdgeStyle;rounded=0;orthogonalLoop=1;jettySize=auto;html=1;startArrow=none;startFill=0;endArrow=classic;endFill=1;" parent="1" source="4qVqTRqzKTblFJhMyqPV-108" edge="1">
          <mxGeometry relative="1" as="geometry">
            <mxPoint x="1529" y="339" as="targetPoint" />
          </mxGeometry>
        </mxCell>
        <mxCell id="4qVqTRqzKTblFJhMyqPV-108" value="&lt;b&gt;AWS EMR&lt;br&gt;&lt;/b&gt;Spark Streaming&lt;br&gt;CaptureAccountingJournalEntryEventsJob" style="points=[[0,0,0],[0.25,0,0],[0.5,0,0],[0.75,0,0],[1,0,0],[0,1,0],[0.25,1,0],[0.5,1,0],[0.75,1,0],[1,1,0],[0,0.25,0],[0,0.5,0],[0,0.75,0],[1,0.25,0],[1,0.5,0],[1,0.75,0]];outlineConnect=0;fontColor=#232F3E;gradientColor=#945DF2;gradientDirection=north;fillColor=#5A30B5;strokeColor=#ffffff;dashed=0;verticalLabelPosition=bottom;verticalAlign=top;align=center;html=1;fontSize=12;fontStyle=0;aspect=fixed;shape=mxgraph.aws4.resourceIcon;resIcon=mxgraph.aws4.emr;" parent="1" vertex="1">
          <mxGeometry x="1319" y="300" width="78" height="78" as="geometry" />
        </mxCell>
        <mxCell id="4qVqTRqzKTblFJhMyqPV-112" style="edgeStyle=orthogonalEdgeStyle;rounded=0;orthogonalLoop=1;jettySize=auto;html=1;startArrow=none;startFill=0;endArrow=classic;endFill=1;" parent="1" source="4qVqTRqzKTblFJhMyqPV-110" target="4qVqTRqzKTblFJhMyqPV-111" edge="1">
          <mxGeometry relative="1" as="geometry" />
        </mxCell>
        <mxCell id="4qVqTRqzKTblFJhMyqPV-202" style="edgeStyle=orthogonalEdgeStyle;rounded=0;orthogonalLoop=1;jettySize=auto;html=1;entryX=0;entryY=0.5;entryDx=0;entryDy=0;entryPerimeter=0;fontColor=#00FF00;startArrow=none;startFill=0;endArrow=classic;endFill=1;" parent="1" source="4qVqTRqzKTblFJhMyqPV-110" target="4qVqTRqzKTblFJhMyqPV-200" edge="1">
          <mxGeometry relative="1" as="geometry">
            <Array as="points">
              <mxPoint x="1650" y="339" />
              <mxPoint x="1650" y="529" />
            </Array>
          </mxGeometry>
        </mxCell>
        <mxCell id="4qVqTRqzKTblFJhMyqPV-206" style="edgeStyle=orthogonalEdgeStyle;rounded=0;orthogonalLoop=1;jettySize=auto;html=1;entryX=0;entryY=0.5;entryDx=0;entryDy=0;entryPerimeter=0;fontColor=#00FF00;startArrow=none;startFill=0;endArrow=classic;endFill=1;" parent="1" source="4qVqTRqzKTblFJhMyqPV-110" target="4qVqTRqzKTblFJhMyqPV-204" edge="1">
          <mxGeometry relative="1" as="geometry">
            <Array as="points">
              <mxPoint x="1650" y="339" />
              <mxPoint x="1650" y="709" />
            </Array>
          </mxGeometry>
        </mxCell>
        <mxCell id="4qVqTRqzKTblFJhMyqPV-110" value="&lt;b&gt;AWS S3&lt;/b&gt;&lt;br&gt;Bucket Staging&lt;br&gt;Parquet Format&lt;br&gt;Journal Entry Events" style="points=[[0,0,0],[0.25,0,0],[0.5,0,0],[0.75,0,0],[1,0,0],[0,1,0],[0.25,1,0],[0.5,1,0],[0.75,1,0],[1,1,0],[0,0.25,0],[0,0.5,0],[0,0.75,0],[1,0.25,0],[1,0.5,0],[1,0.75,0]];outlineConnect=0;fontColor=#232F3E;gradientColor=#60A337;gradientDirection=north;fillColor=#277116;strokeColor=#ffffff;dashed=0;verticalLabelPosition=bottom;verticalAlign=top;align=center;html=1;fontSize=12;fontStyle=0;aspect=fixed;shape=mxgraph.aws4.resourceIcon;resIcon=mxgraph.aws4.s3;" parent="1" vertex="1">
          <mxGeometry x="1529" y="300" width="78" height="78" as="geometry" />
        </mxCell>
        <mxCell id="4qVqTRqzKTblFJhMyqPV-114" style="edgeStyle=orthogonalEdgeStyle;rounded=0;orthogonalLoop=1;jettySize=auto;html=1;entryX=0;entryY=0.5;entryDx=0;entryDy=0;entryPerimeter=0;startArrow=none;startFill=0;endArrow=classic;endFill=1;" parent="1" source="4qVqTRqzKTblFJhMyqPV-111" target="4qVqTRqzKTblFJhMyqPV-113" edge="1">
          <mxGeometry relative="1" as="geometry" />
        </mxCell>
        <mxCell id="4qVqTRqzKTblFJhMyqPV-111" value="&lt;b&gt;AWS EMR&lt;br&gt;&lt;/b&gt;Spark Streaming&lt;br&gt;OptimizeAccountingJournalEntryEventsJob" style="points=[[0,0,0],[0.25,0,0],[0.5,0,0],[0.75,0,0],[1,0,0],[0,1,0],[0.25,1,0],[0.5,1,0],[0.75,1,0],[1,1,0],[0,0.25,0],[0,0.5,0],[0,0.75,0],[1,0.25,0],[1,0.5,0],[1,0.75,0]];outlineConnect=0;fontColor=#232F3E;gradientColor=#945DF2;gradientDirection=north;fillColor=#5A30B5;strokeColor=#ffffff;dashed=0;verticalLabelPosition=bottom;verticalAlign=top;align=center;html=1;fontSize=12;fontStyle=0;aspect=fixed;shape=mxgraph.aws4.resourceIcon;resIcon=mxgraph.aws4.emr;" parent="1" vertex="1">
          <mxGeometry x="1739" y="300" width="78" height="78" as="geometry" />
        </mxCell>
        <mxCell id="4qVqTRqzKTblFJhMyqPV-113" value="&lt;b&gt;AWS S3&lt;/b&gt;&lt;br&gt;Bucket Raw&lt;br&gt;Parquet Format&lt;br&gt;Partitioned by Day&lt;br&gt;Journal Entries" style="points=[[0,0,0],[0.25,0,0],[0.5,0,0],[0.75,0,0],[1,0,0],[0,1,0],[0.25,1,0],[0.5,1,0],[0.75,1,0],[1,1,0],[0,0.25,0],[0,0.5,0],[0,0.75,0],[1,0.25,0],[1,0.5,0],[1,0.75,0]];outlineConnect=0;fontColor=#232F3E;gradientColor=#60A337;gradientDirection=north;fillColor=#277116;strokeColor=#ffffff;dashed=0;verticalLabelPosition=bottom;verticalAlign=top;align=center;html=1;fontSize=12;fontStyle=0;aspect=fixed;shape=mxgraph.aws4.resourceIcon;resIcon=mxgraph.aws4.s3;" parent="1" vertex="1">
          <mxGeometry x="1949" y="300" width="78" height="78" as="geometry" />
        </mxCell>
        <mxCell id="4qVqTRqzKTblFJhMyqPV-133" style="edgeStyle=orthogonalEdgeStyle;rounded=0;orthogonalLoop=1;jettySize=auto;html=1;entryX=0;entryY=0.5;entryDx=0;entryDy=0;entryPerimeter=0;startArrow=none;startFill=0;endArrow=classic;endFill=1;" parent="1" source="4qVqTRqzKTblFJhMyqPV-127" target="4qVqTRqzKTblFJhMyqPV-132" edge="1">
          <mxGeometry relative="1" as="geometry" />
        </mxCell>
        <mxCell id="4qVqTRqzKTblFJhMyqPV-177" style="edgeStyle=orthogonalEdgeStyle;rounded=0;orthogonalLoop=1;jettySize=auto;html=1;startArrow=none;startFill=0;endArrow=classic;endFill=1;entryX=1;entryY=0.5;entryDx=0;entryDy=0;entryPerimeter=0;" parent="1" target="4qVqTRqzKTblFJhMyqPV-192" edge="1">
          <mxGeometry relative="1" as="geometry">
            <mxPoint x="2218" y="440" as="sourcePoint" />
            <mxPoint x="2040" y="559" as="targetPoint" />
            <Array as="points">
              <mxPoint x="2218" y="1119" />
            </Array>
          </mxGeometry>
        </mxCell>
        <mxCell id="4qVqTRqzKTblFJhMyqPV-210" style="edgeStyle=orthogonalEdgeStyle;rounded=0;orthogonalLoop=1;jettySize=auto;html=1;entryX=1;entryY=0.5;entryDx=0;entryDy=0;entryPerimeter=0;fontColor=#00FF00;startArrow=none;startFill=0;endArrow=classic;endFill=1;" parent="1" target="4qVqTRqzKTblFJhMyqPV-205" edge="1">
          <mxGeometry relative="1" as="geometry">
            <mxPoint x="2180" y="440" as="sourcePoint" />
            <Array as="points">
              <mxPoint x="2180" y="709" />
            </Array>
          </mxGeometry>
        </mxCell>
        <mxCell id="4qVqTRqzKTblFJhMyqPV-127" value="&lt;b&gt;AWS EMR&lt;br&gt;&lt;/b&gt;Spark Streaming&lt;br&gt;ProjectNonZeroBalanceReportJob" style="points=[[0,0,0],[0.25,0,0],[0.5,0,0],[0.75,0,0],[1,0,0],[0,1,0],[0.25,1,0],[0.5,1,0],[0.75,1,0],[1,1,0],[0,0.25,0],[0,0.5,0],[0,0.75,0],[1,0.25,0],[1,0.5,0],[1,0.75,0]];outlineConnect=0;fontColor=#232F3E;gradientColor=#945DF2;gradientDirection=north;fillColor=#5A30B5;strokeColor=#ffffff;dashed=0;verticalLabelPosition=bottom;verticalAlign=top;align=center;html=1;fontSize=12;fontStyle=0;aspect=fixed;shape=mxgraph.aws4.resourceIcon;resIcon=mxgraph.aws4.emr;" parent="1" vertex="1">
          <mxGeometry x="2159" y="300" width="78" height="78" as="geometry" />
        </mxCell>
        <mxCell id="4qVqTRqzKTblFJhMyqPV-137" style="edgeStyle=orthogonalEdgeStyle;rounded=0;orthogonalLoop=1;jettySize=auto;html=1;startArrow=none;startFill=0;endArrow=classic;endFill=1;" parent="1" source="4qVqTRqzKTblFJhMyqPV-132" target="4qVqTRqzKTblFJhMyqPV-136" edge="1">
          <mxGeometry relative="1" as="geometry" />
        </mxCell>
        <mxCell id="4qVqTRqzKTblFJhMyqPV-132" value="&lt;b&gt;AWS S3&lt;/b&gt;&lt;br&gt;Bucket Spec&lt;br&gt;Parquet Format&lt;br&gt;Partitioned by Day&lt;br&gt;Non Zero Balance Accounts" style="points=[[0,0,0],[0.25,0,0],[0.5,0,0],[0.75,0,0],[1,0,0],[0,1,0],[0.25,1,0],[0.5,1,0],[0.75,1,0],[1,1,0],[0,0.25,0],[0,0.5,0],[0,0.75,0],[1,0.25,0],[1,0.5,0],[1,0.75,0]];outlineConnect=0;fontColor=#232F3E;gradientColor=#60A337;gradientDirection=north;fillColor=#277116;strokeColor=#ffffff;dashed=0;verticalLabelPosition=bottom;verticalAlign=top;align=center;html=1;fontSize=12;fontStyle=0;aspect=fixed;shape=mxgraph.aws4.resourceIcon;resIcon=mxgraph.aws4.s3;" parent="1" vertex="1">
          <mxGeometry x="2369" y="300" width="78" height="78" as="geometry" />
        </mxCell>
        <mxCell id="4qVqTRqzKTblFJhMyqPV-139" style="edgeStyle=orthogonalEdgeStyle;rounded=0;orthogonalLoop=1;jettySize=auto;html=1;startArrow=none;startFill=0;endArrow=classic;endFill=1;" parent="1" source="4qVqTRqzKTblFJhMyqPV-136" target="4qVqTRqzKTblFJhMyqPV-138" edge="1">
          <mxGeometry relative="1" as="geometry" />
        </mxCell>
        <mxCell id="4qVqTRqzKTblFJhMyqPV-136" value="&lt;b&gt;AWS Athena&lt;/b&gt;" style="points=[[0,0,0],[0.25,0,0],[0.5,0,0],[0.75,0,0],[1,0,0],[0,1,0],[0.25,1,0],[0.5,1,0],[0.75,1,0],[1,1,0],[0,0.25,0],[0,0.5,0],[0,0.75,0],[1,0.25,0],[1,0.5,0],[1,0.75,0]];outlineConnect=0;fontColor=#232F3E;gradientColor=#945DF2;gradientDirection=north;fillColor=#5A30B5;strokeColor=#ffffff;dashed=0;verticalLabelPosition=bottom;verticalAlign=top;align=center;html=1;fontSize=12;fontStyle=0;aspect=fixed;shape=mxgraph.aws4.resourceIcon;resIcon=mxgraph.aws4.athena;" parent="1" vertex="1">
          <mxGeometry x="2579" y="300" width="78" height="78" as="geometry" />
        </mxCell>
        <mxCell id="4qVqTRqzKTblFJhMyqPV-162" style="edgeStyle=orthogonalEdgeStyle;rounded=0;orthogonalLoop=1;jettySize=auto;html=1;entryX=0;entryY=0.5;entryDx=0;entryDy=0;startArrow=none;startFill=0;endArrow=classic;endFill=1;" parent="1" source="4qVqTRqzKTblFJhMyqPV-138" target="4qVqTRqzKTblFJhMyqPV-145" edge="1">
          <mxGeometry relative="1" as="geometry" />
        </mxCell>
        <mxCell id="4qVqTRqzKTblFJhMyqPV-138" value="&lt;b&gt;Tableau&lt;/b&gt;&lt;br&gt;Non Zero Balance Report" style="points=[[0,0,0],[0.25,0,0],[0.5,0,0],[0.75,0,0],[1,0,0],[0,1,0],[0.25,1,0],[0.5,1,0],[0.75,1,0],[1,1,0],[0,0.25,0],[0,0.5,0],[0,0.75,0],[1,0.25,0],[1,0.5,0],[1,0.75,0]];outlineConnect=0;fontColor=#232F3E;gradientColor=#945DF2;gradientDirection=north;fillColor=#5A30B5;strokeColor=#ffffff;dashed=0;verticalLabelPosition=bottom;verticalAlign=top;align=center;html=1;fontSize=12;fontStyle=0;aspect=fixed;shape=mxgraph.aws4.resourceIcon;resIcon=mxgraph.aws4.quicksight;" parent="1" vertex="1">
          <mxGeometry x="2792" y="300" width="78" height="78" as="geometry" />
        </mxCell>
        <mxCell id="4qVqTRqzKTblFJhMyqPV-140" value="" style="shape=table;html=1;whiteSpace=wrap;startSize=0;container=1;collapsible=0;childLayout=tableLayout;" parent="1" vertex="1">
          <mxGeometry x="2979" y="279" width="730" height="120" as="geometry" />
        </mxCell>
        <mxCell id="4qVqTRqzKTblFJhMyqPV-141" value="" style="shape=partialRectangle;html=1;whiteSpace=wrap;collapsible=0;dropTarget=0;pointerEvents=0;fillColor=none;top=0;left=0;bottom=0;right=0;points=[[0,0.5],[1,0.5]];portConstraint=eastwest;" parent="4qVqTRqzKTblFJhMyqPV-140" vertex="1">
          <mxGeometry width="730" height="40" as="geometry" />
        </mxCell>
        <mxCell id="4qVqTRqzKTblFJhMyqPV-142" value="account_code" style="shape=partialRectangle;html=1;whiteSpace=wrap;connectable=0;overflow=hidden;fillColor=none;top=0;left=0;bottom=0;right=0;" parent="4qVqTRqzKTblFJhMyqPV-141" vertex="1">
          <mxGeometry width="146" height="40" as="geometry" />
        </mxCell>
        <mxCell id="4qVqTRqzKTblFJhMyqPV-143" value="account_name" style="shape=partialRectangle;html=1;whiteSpace=wrap;connectable=0;overflow=hidden;fillColor=none;top=0;left=0;bottom=0;right=0;" parent="4qVqTRqzKTblFJhMyqPV-141" vertex="1">
          <mxGeometry x="146" width="147" height="40" as="geometry" />
        </mxCell>
        <mxCell id="4qVqTRqzKTblFJhMyqPV-144" value="balance_previous_day" style="shape=partialRectangle;html=1;whiteSpace=wrap;connectable=0;overflow=hidden;fillColor=none;top=0;left=0;bottom=0;right=0;" parent="4qVqTRqzKTblFJhMyqPV-141" vertex="1">
          <mxGeometry x="293" width="146" height="40" as="geometry" />
        </mxCell>
        <mxCell id="4qVqTRqzKTblFJhMyqPV-156" value="balance_actual_day" style="shape=partialRectangle;html=1;whiteSpace=wrap;connectable=0;overflow=hidden;fillColor=none;top=0;left=0;bottom=0;right=0;" parent="4qVqTRqzKTblFJhMyqPV-141" vertex="1">
          <mxGeometry x="439" width="145" height="40" as="geometry" />
        </mxCell>
        <mxCell id="4qVqTRqzKTblFJhMyqPV-159" value="number_sequencial_days" style="shape=partialRectangle;html=1;whiteSpace=wrap;connectable=0;overflow=hidden;fillColor=none;top=0;left=0;bottom=0;right=0;" parent="4qVqTRqzKTblFJhMyqPV-141" vertex="1">
          <mxGeometry x="584" width="146" height="40" as="geometry" />
        </mxCell>
        <mxCell id="4qVqTRqzKTblFJhMyqPV-145" value="" style="shape=partialRectangle;html=1;whiteSpace=wrap;collapsible=0;dropTarget=0;pointerEvents=0;fillColor=none;top=0;left=0;bottom=0;right=0;points=[[0,0.5],[1,0.5]];portConstraint=eastwest;" parent="4qVqTRqzKTblFJhMyqPV-140" vertex="1">
          <mxGeometry y="40" width="730" height="40" as="geometry" />
        </mxCell>
        <mxCell id="4qVqTRqzKTblFJhMyqPV-146" value="ASDWAD" style="shape=partialRectangle;html=1;whiteSpace=wrap;connectable=0;overflow=hidden;fillColor=none;top=0;left=0;bottom=0;right=0;" parent="4qVqTRqzKTblFJhMyqPV-145" vertex="1">
          <mxGeometry width="146" height="40" as="geometry" />
        </mxCell>
        <mxCell id="4qVqTRqzKTblFJhMyqPV-147" value="CAIXA" style="shape=partialRectangle;html=1;whiteSpace=wrap;connectable=0;overflow=hidden;fillColor=none;top=0;left=0;bottom=0;right=0;" parent="4qVqTRqzKTblFJhMyqPV-145" vertex="1">
          <mxGeometry x="146" width="147" height="40" as="geometry" />
        </mxCell>
        <mxCell id="4qVqTRqzKTblFJhMyqPV-148" value="0,00" style="shape=partialRectangle;html=1;whiteSpace=wrap;connectable=0;overflow=hidden;fillColor=none;top=0;left=0;bottom=0;right=0;" parent="4qVqTRqzKTblFJhMyqPV-145" vertex="1">
          <mxGeometry x="293" width="146" height="40" as="geometry" />
        </mxCell>
        <mxCell id="4qVqTRqzKTblFJhMyqPV-157" value="&lt;span&gt;100,00&lt;/span&gt;" style="shape=partialRectangle;html=1;whiteSpace=wrap;connectable=0;overflow=hidden;fillColor=none;top=0;left=0;bottom=0;right=0;" parent="4qVqTRqzKTblFJhMyqPV-145" vertex="1">
          <mxGeometry x="439" width="145" height="40" as="geometry" />
        </mxCell>
        <mxCell id="4qVqTRqzKTblFJhMyqPV-160" value="1" style="shape=partialRectangle;html=1;whiteSpace=wrap;connectable=0;overflow=hidden;fillColor=none;top=0;left=0;bottom=0;right=0;" parent="4qVqTRqzKTblFJhMyqPV-145" vertex="1">
          <mxGeometry x="584" width="146" height="40" as="geometry" />
        </mxCell>
        <mxCell id="4qVqTRqzKTblFJhMyqPV-149" value="" style="shape=partialRectangle;html=1;whiteSpace=wrap;collapsible=0;dropTarget=0;pointerEvents=0;fillColor=none;top=0;left=0;bottom=0;right=0;points=[[0,0.5],[1,0.5]];portConstraint=eastwest;" parent="4qVqTRqzKTblFJhMyqPV-140" vertex="1">
          <mxGeometry y="80" width="730" height="40" as="geometry" />
        </mxCell>
        <mxCell id="4qVqTRqzKTblFJhMyqPV-150" value="&lt;span&gt;ASDWAD&lt;/span&gt;" style="shape=partialRectangle;html=1;whiteSpace=wrap;connectable=0;overflow=hidden;fillColor=none;top=0;left=0;bottom=0;right=0;" parent="4qVqTRqzKTblFJhMyqPV-149" vertex="1">
          <mxGeometry width="146" height="40" as="geometry" />
        </mxCell>
        <mxCell id="4qVqTRqzKTblFJhMyqPV-151" value="DESPESAS" style="shape=partialRectangle;html=1;whiteSpace=wrap;connectable=0;overflow=hidden;fillColor=none;top=0;left=0;bottom=0;right=0;" parent="4qVqTRqzKTblFJhMyqPV-149" vertex="1">
          <mxGeometry x="146" width="147" height="40" as="geometry" />
        </mxCell>
        <mxCell id="4qVqTRqzKTblFJhMyqPV-152" value="100,00" style="shape=partialRectangle;html=1;whiteSpace=wrap;connectable=0;overflow=hidden;fillColor=none;top=0;left=0;bottom=0;right=0;" parent="4qVqTRqzKTblFJhMyqPV-149" vertex="1">
          <mxGeometry x="293" width="146" height="40" as="geometry" />
        </mxCell>
        <mxCell id="4qVqTRqzKTblFJhMyqPV-158" value="200,00" style="shape=partialRectangle;html=1;whiteSpace=wrap;connectable=0;overflow=hidden;fillColor=none;top=0;left=0;bottom=0;right=0;" parent="4qVqTRqzKTblFJhMyqPV-149" vertex="1">
          <mxGeometry x="439" width="145" height="40" as="geometry" />
        </mxCell>
        <mxCell id="4qVqTRqzKTblFJhMyqPV-161" value="2" style="shape=partialRectangle;html=1;whiteSpace=wrap;connectable=0;overflow=hidden;fillColor=none;top=0;left=0;bottom=0;right=0;" parent="4qVqTRqzKTblFJhMyqPV-149" vertex="1">
          <mxGeometry x="584" width="146" height="40" as="geometry" />
        </mxCell>
        <mxCell id="4qVqTRqzKTblFJhMyqPV-173" style="edgeStyle=orthogonalEdgeStyle;rounded=0;orthogonalLoop=1;jettySize=auto;html=1;entryX=0;entryY=0.5;entryDx=0;entryDy=0;entryPerimeter=0;startArrow=none;startFill=0;endArrow=classic;endFill=1;" parent="1" source="4qVqTRqzKTblFJhMyqPV-163" target="4qVqTRqzKTblFJhMyqPV-172" edge="1">
          <mxGeometry relative="1" as="geometry" />
        </mxCell>
        <mxCell id="4qVqTRqzKTblFJhMyqPV-163" value="&lt;b&gt;&lt;span style=&quot;color: rgb(0 , 0 , 0) ; font-size: 11px ; background-color: rgb(255 , 255 , 255)&quot;&gt;Apache Kafka&lt;/span&gt;&lt;br style=&quot;color: rgb(0 , 0 , 0) ; font-size: 11px&quot;&gt;&lt;/b&gt;&lt;span style=&quot;color: rgb(0 , 0 , 0) ; font-size: 11px ; background-color: rgb(255 , 255 , 255)&quot;&gt;accounting-account-created&lt;br&gt;&lt;/span&gt;&lt;span style=&quot;color: rgb(0 , 0 , 0) ; font-size: 11px ; background-color: rgb(255 , 255 , 255)&quot;&gt;accounting-account-changed&lt;/span&gt;&lt;span style=&quot;color: rgb(0 , 0 , 0) ; font-size: 11px ; background-color: rgb(255 , 255 , 255)&quot;&gt;&lt;br&gt;&lt;/span&gt;" style="outlineConnect=0;fontColor=#232F3E;gradientColor=none;strokeColor=#232F3E;fillColor=#ffffff;dashed=0;verticalLabelPosition=bottom;verticalAlign=top;align=center;html=1;fontSize=12;fontStyle=0;aspect=fixed;shape=mxgraph.aws4.resourceIcon;resIcon=mxgraph.aws4.topic;" parent="1" vertex="1">
          <mxGeometry x="1095" y="868.9999999999999" width="60" height="60" as="geometry" />
        </mxCell>
        <mxCell id="4qVqTRqzKTblFJhMyqPV-168" style="edgeStyle=orthogonalEdgeStyle;rounded=0;orthogonalLoop=1;jettySize=auto;html=1;startArrow=none;startFill=0;endArrow=classic;endFill=1;entryX=0;entryY=0.5;entryDx=0;entryDy=0;entryPerimeter=0;" parent="1" source="4qVqTRqzKTblFJhMyqPV-165" target="4qVqTRqzKTblFJhMyqPV-169" edge="1">
          <mxGeometry relative="1" as="geometry">
            <mxPoint x="1110" y="729.9999999999999" as="targetPoint" />
          </mxGeometry>
        </mxCell>
        <mxCell id="4qVqTRqzKTblFJhMyqPV-165" value="&lt;b&gt;AWS DynamoDB&lt;/b&gt;&lt;br&gt;TransactionalAccountingAccountDB" style="points=[[0,0,0],[0.25,0,0],[0.5,0,0],[0.75,0,0],[1,0,0],[0,1,0],[0.25,1,0],[0.5,1,0],[0.75,1,0],[1,1,0],[0,0.25,0],[0,0.5,0],[0,0.75,0],[1,0.25,0],[1,0.5,0],[1,0.75,0]];outlineConnect=0;fontColor=#232F3E;gradientColor=#4D72F3;gradientDirection=north;fillColor=#3334B9;strokeColor=#ffffff;dashed=0;verticalLabelPosition=bottom;verticalAlign=top;align=center;html=1;fontSize=12;fontStyle=0;aspect=fixed;shape=mxgraph.aws4.resourceIcon;resIcon=mxgraph.aws4.dynamodb;" parent="1" vertex="1">
          <mxGeometry x="697" y="859.9999999999999" width="78" height="78" as="geometry" />
        </mxCell>
        <mxCell id="4qVqTRqzKTblFJhMyqPV-170" style="edgeStyle=orthogonalEdgeStyle;rounded=0;orthogonalLoop=1;jettySize=auto;html=1;startArrow=none;startFill=0;endArrow=classic;endFill=1;" parent="1" source="4qVqTRqzKTblFJhMyqPV-169" target="4qVqTRqzKTblFJhMyqPV-163" edge="1">
          <mxGeometry relative="1" as="geometry" />
        </mxCell>
        <mxCell id="4qVqTRqzKTblFJhMyqPV-169" value="&lt;b&gt;AWS Lambda&lt;/b&gt;" style="points=[[0,0,0],[0.25,0,0],[0.5,0,0],[0.75,0,0],[1,0,0],[0,1,0],[0.25,1,0],[0.5,1,0],[0.75,1,0],[1,1,0],[0,0.25,0],[0,0.5,0],[0,0.75,0],[1,0.25,0],[1,0.5,0],[1,0.75,0]];outlineConnect=0;fontColor=#232F3E;gradientColor=#F78E04;gradientDirection=north;fillColor=#D05C17;strokeColor=#ffffff;dashed=0;verticalLabelPosition=bottom;verticalAlign=top;align=center;html=1;fontSize=12;fontStyle=0;aspect=fixed;shape=mxgraph.aws4.resourceIcon;resIcon=mxgraph.aws4.lambda;" parent="1" vertex="1">
          <mxGeometry x="896" y="859.9999999999999" width="78" height="78" as="geometry" />
        </mxCell>
        <mxCell id="4qVqTRqzKTblFJhMyqPV-183" style="edgeStyle=orthogonalEdgeStyle;rounded=0;orthogonalLoop=1;jettySize=auto;html=1;entryX=0;entryY=0.5;entryDx=0;entryDy=0;entryPerimeter=0;startArrow=none;startFill=0;endArrow=classic;endFill=1;" parent="1" source="4qVqTRqzKTblFJhMyqPV-172" target="4qVqTRqzKTblFJhMyqPV-182" edge="1">
          <mxGeometry relative="1" as="geometry" />
        </mxCell>
        <mxCell id="4qVqTRqzKTblFJhMyqPV-172" value="&lt;b&gt;AWS EMR&lt;br&gt;&lt;/b&gt;Spark Streaming&lt;br&gt;CaptureAccountingAccountEventsJob" style="points=[[0,0,0],[0.25,0,0],[0.5,0,0],[0.75,0,0],[1,0,0],[0,1,0],[0.25,1,0],[0.5,1,0],[0.75,1,0],[1,1,0],[0,0.25,0],[0,0.5,0],[0,0.75,0],[1,0.25,0],[1,0.5,0],[1,0.75,0]];outlineConnect=0;fontColor=#232F3E;gradientColor=#945DF2;gradientDirection=north;fillColor=#5A30B5;strokeColor=#ffffff;dashed=0;verticalLabelPosition=bottom;verticalAlign=top;align=center;html=1;fontSize=12;fontStyle=0;aspect=fixed;shape=mxgraph.aws4.resourceIcon;resIcon=mxgraph.aws4.emr;" parent="1" vertex="1">
          <mxGeometry x="1319" y="859.9999999999999" width="78" height="78" as="geometry" />
        </mxCell>
        <mxCell id="4qVqTRqzKTblFJhMyqPV-181" style="edgeStyle=orthogonalEdgeStyle;rounded=0;orthogonalLoop=1;jettySize=auto;html=1;entryX=0;entryY=0.5;entryDx=0;entryDy=0;entryPerimeter=0;startArrow=none;startFill=0;endArrow=classic;endFill=1;" parent="1" source="4qVqTRqzKTblFJhMyqPV-178" target="4qVqTRqzKTblFJhMyqPV-179" edge="1">
          <mxGeometry relative="1" as="geometry" />
        </mxCell>
        <mxCell id="4qVqTRqzKTblFJhMyqPV-178" value="&lt;b&gt;AWS DynamoDB&lt;/b&gt;&lt;br&gt;TransactionalAccountingBalanceDB" style="points=[[0,0,0],[0.25,0,0],[0.5,0,0],[0.75,0,0],[1,0,0],[0,1,0],[0.25,1,0],[0.5,1,0],[0.75,1,0],[1,1,0],[0,0.25,0],[0,0.5,0],[0,0.75,0],[1,0.25,0],[1,0.5,0],[1,0.75,0]];outlineConnect=0;fontColor=#232F3E;gradientColor=#4D72F3;gradientDirection=north;fillColor=#3334B9;strokeColor=#ffffff;dashed=0;verticalLabelPosition=bottom;verticalAlign=top;align=center;html=1;fontSize=12;fontStyle=0;aspect=fixed;shape=mxgraph.aws4.resourceIcon;resIcon=mxgraph.aws4.dynamodb;" parent="1" vertex="1">
          <mxGeometry x="697" y="300" width="78" height="78" as="geometry" />
        </mxCell>
        <mxCell id="4qVqTRqzKTblFJhMyqPV-179" value="&lt;b&gt;AWS Lambda&lt;/b&gt;" style="points=[[0,0,0],[0.25,0,0],[0.5,0,0],[0.75,0,0],[1,0,0],[0,1,0],[0.25,1,0],[0.5,1,0],[0.75,1,0],[1,1,0],[0,0.25,0],[0,0.5,0],[0,0.75,0],[1,0.25,0],[1,0.5,0],[1,0.75,0]];outlineConnect=0;fontColor=#232F3E;gradientColor=#F78E04;gradientDirection=north;fillColor=#D05C17;strokeColor=#ffffff;dashed=0;verticalLabelPosition=bottom;verticalAlign=top;align=center;html=1;fontSize=12;fontStyle=0;aspect=fixed;shape=mxgraph.aws4.resourceIcon;resIcon=mxgraph.aws4.lambda;" parent="1" vertex="1">
          <mxGeometry x="896" y="300" width="78" height="78" as="geometry" />
        </mxCell>
        <mxCell id="4qVqTRqzKTblFJhMyqPV-180" value="" style="edgeStyle=orthogonalEdgeStyle;rounded=0;orthogonalLoop=1;jettySize=auto;html=1;startArrow=none;startFill=0;endArrow=classic;endFill=1;" parent="1" source="UU9deluZrK-pCLJk1Hoc-1" edge="1">
          <mxGeometry relative="1" as="geometry">
            <mxPoint x="700" y="339" as="targetPoint" />
            <mxPoint x="585" y="339.0000000000002" as="sourcePoint" />
          </mxGeometry>
        </mxCell>
        <mxCell id="4qVqTRqzKTblFJhMyqPV-185" style="edgeStyle=orthogonalEdgeStyle;rounded=0;orthogonalLoop=1;jettySize=auto;html=1;startArrow=none;startFill=0;endArrow=classic;endFill=1;" parent="1" source="4qVqTRqzKTblFJhMyqPV-182" target="4qVqTRqzKTblFJhMyqPV-184" edge="1">
          <mxGeometry relative="1" as="geometry" />
        </mxCell>
        <mxCell id="4qVqTRqzKTblFJhMyqPV-189" style="edgeStyle=orthogonalEdgeStyle;rounded=0;orthogonalLoop=1;jettySize=auto;html=1;entryX=0;entryY=0.5;entryDx=0;entryDy=0;entryPerimeter=0;startArrow=none;startFill=0;endArrow=classic;endFill=1;" parent="1" source="4qVqTRqzKTblFJhMyqPV-182" target="4qVqTRqzKTblFJhMyqPV-188" edge="1">
          <mxGeometry relative="1" as="geometry">
            <Array as="points">
              <mxPoint x="1650" y="899.28" />
              <mxPoint x="1650" y="1119.28" />
            </Array>
          </mxGeometry>
        </mxCell>
        <mxCell id="4qVqTRqzKTblFJhMyqPV-182" value="&lt;b&gt;AWS S3&lt;/b&gt;&lt;br&gt;Bucket Staging&lt;br&gt;Parquet Format&lt;br&gt;Accounting Account Events" style="points=[[0,0,0],[0.25,0,0],[0.5,0,0],[0.75,0,0],[1,0,0],[0,1,0],[0.25,1,0],[0.5,1,0],[0.75,1,0],[1,1,0],[0,0.25,0],[0,0.5,0],[0,0.75,0],[1,0.25,0],[1,0.5,0],[1,0.75,0]];outlineConnect=0;fontColor=#232F3E;gradientColor=#60A337;gradientDirection=north;fillColor=#277116;strokeColor=#ffffff;dashed=0;verticalLabelPosition=bottom;verticalAlign=top;align=center;html=1;fontSize=12;fontStyle=0;aspect=fixed;shape=mxgraph.aws4.resourceIcon;resIcon=mxgraph.aws4.s3;" parent="1" vertex="1">
          <mxGeometry x="1529" y="859.9999999999999" width="78" height="78" as="geometry" />
        </mxCell>
        <mxCell id="4qVqTRqzKTblFJhMyqPV-187" style="edgeStyle=orthogonalEdgeStyle;rounded=0;orthogonalLoop=1;jettySize=auto;html=1;entryX=0;entryY=0.5;entryDx=0;entryDy=0;entryPerimeter=0;startArrow=none;startFill=0;endArrow=classic;endFill=1;" parent="1" source="4qVqTRqzKTblFJhMyqPV-184" target="4qVqTRqzKTblFJhMyqPV-186" edge="1">
          <mxGeometry relative="1" as="geometry" />
        </mxCell>
        <mxCell id="4qVqTRqzKTblFJhMyqPV-184" value="&lt;b&gt;AWS EMR&lt;br&gt;&lt;/b&gt;Spark Streaming&lt;br&gt;OptimizeAccountingAccountEventsJob" style="points=[[0,0,0],[0.25,0,0],[0.5,0,0],[0.75,0,0],[1,0,0],[0,1,0],[0.25,1,0],[0.5,1,0],[0.75,1,0],[1,1,0],[0,0.25,0],[0,0.5,0],[0,0.75,0],[1,0.25,0],[1,0.5,0],[1,0.75,0]];outlineConnect=0;fontColor=#232F3E;gradientColor=#945DF2;gradientDirection=north;fillColor=#5A30B5;strokeColor=#ffffff;dashed=0;verticalLabelPosition=bottom;verticalAlign=top;align=center;html=1;fontSize=12;fontStyle=0;aspect=fixed;shape=mxgraph.aws4.resourceIcon;resIcon=mxgraph.aws4.emr;" parent="1" vertex="1">
          <mxGeometry x="1739" y="859.9999999999999" width="78" height="78" as="geometry" />
        </mxCell>
        <mxCell id="4qVqTRqzKTblFJhMyqPV-186" value="&lt;b&gt;AWS S3&lt;/b&gt;&lt;br&gt;Bucket Raw&lt;br&gt;Parquet Format&lt;br&gt;Partitioned by AccountId&lt;br&gt;Accounting Account Events" style="points=[[0,0,0],[0.25,0,0],[0.5,0,0],[0.75,0,0],[1,0,0],[0,1,0],[0.25,1,0],[0.5,1,0],[0.75,1,0],[1,1,0],[0,0.25,0],[0,0.5,0],[0,0.75,0],[1,0.25,0],[1,0.5,0],[1,0.75,0]];outlineConnect=0;fontColor=#232F3E;gradientColor=#60A337;gradientDirection=north;fillColor=#277116;strokeColor=#ffffff;dashed=0;verticalLabelPosition=bottom;verticalAlign=top;align=center;html=1;fontSize=12;fontStyle=0;aspect=fixed;shape=mxgraph.aws4.resourceIcon;resIcon=mxgraph.aws4.s3;" parent="1" vertex="1">
          <mxGeometry x="1949" y="859.9999999999999" width="78" height="78" as="geometry" />
        </mxCell>
        <mxCell id="4qVqTRqzKTblFJhMyqPV-191" style="edgeStyle=orthogonalEdgeStyle;rounded=0;orthogonalLoop=1;jettySize=auto;html=1;entryX=0;entryY=0.5;entryDx=0;entryDy=0;entryPerimeter=0;startArrow=none;startFill=0;endArrow=classic;endFill=1;" parent="1" source="4qVqTRqzKTblFJhMyqPV-188" target="4qVqTRqzKTblFJhMyqPV-192" edge="1">
          <mxGeometry relative="1" as="geometry">
            <mxPoint x="1948.9999999999995" y="1119" as="targetPoint" />
          </mxGeometry>
        </mxCell>
        <mxCell id="4qVqTRqzKTblFJhMyqPV-188" value="&lt;b&gt;AWS EMR&lt;br&gt;&lt;/b&gt;Spark Streaming&lt;br&gt;ProjectAccountingAccountStateJob" style="points=[[0,0,0],[0.25,0,0],[0.5,0,0],[0.75,0,0],[1,0,0],[0,1,0],[0.25,1,0],[0.5,1,0],[0.75,1,0],[1,1,0],[0,0.25,0],[0,0.5,0],[0,0.75,0],[1,0.25,0],[1,0.5,0],[1,0.75,0]];outlineConnect=0;fontColor=#232F3E;gradientColor=#945DF2;gradientDirection=north;fillColor=#5A30B5;strokeColor=#ffffff;dashed=0;verticalLabelPosition=bottom;verticalAlign=top;align=center;html=1;fontSize=12;fontStyle=0;aspect=fixed;shape=mxgraph.aws4.resourceIcon;resIcon=mxgraph.aws4.emr;" parent="1" vertex="1">
          <mxGeometry x="1739" y="1080" width="78" height="78" as="geometry" />
        </mxCell>
        <mxCell id="4qVqTRqzKTblFJhMyqPV-192" value="&lt;b&gt;AWS DynamoDB&lt;/b&gt;&lt;br&gt;AnalyticalAccountingAccountDB&lt;br&gt;Accounting Accounts" style="points=[[0,0,0],[0.25,0,0],[0.5,0,0],[0.75,0,0],[1,0,0],[0,1,0],[0.25,1,0],[0.5,1,0],[0.75,1,0],[1,1,0],[0,0.25,0],[0,0.5,0],[0,0.75,0],[1,0.25,0],[1,0.5,0],[1,0.75,0]];outlineConnect=0;fontColor=#232F3E;gradientColor=#4D72F3;gradientDirection=north;fillColor=#3334B9;strokeColor=#ffffff;dashed=0;verticalLabelPosition=bottom;verticalAlign=top;align=center;html=1;fontSize=12;fontStyle=0;aspect=fixed;shape=mxgraph.aws4.resourceIcon;resIcon=mxgraph.aws4.dynamodb;" parent="1" vertex="1">
          <mxGeometry x="1949" y="1080" width="78" height="78" as="geometry" />
        </mxCell>
        <mxCell id="4qVqTRqzKTblFJhMyqPV-199" value="1:30 AM" style="shape=image;html=1;verticalAlign=bottom;verticalLabelPosition=top;labelBackgroundColor=#ffffff;imageAspect=0;aspect=fixed;image=https://cdn3.iconfinder.com/data/icons/material-inspired-2/16/27-128.png;labelPosition=center;align=center;" parent="1" vertex="1">
          <mxGeometry x="2216" y="279" width="42" height="42" as="geometry" />
        </mxCell>
        <mxCell id="4qVqTRqzKTblFJhMyqPV-203" style="edgeStyle=orthogonalEdgeStyle;rounded=0;orthogonalLoop=1;jettySize=auto;html=1;entryX=0;entryY=0.5;entryDx=0;entryDy=0;entryPerimeter=0;fontColor=#00FF00;startArrow=none;startFill=0;endArrow=classic;endFill=1;" parent="1" source="4qVqTRqzKTblFJhMyqPV-200" target="4qVqTRqzKTblFJhMyqPV-201" edge="1">
          <mxGeometry relative="1" as="geometry" />
        </mxCell>
        <mxCell id="4qVqTRqzKTblFJhMyqPV-200" value="&lt;b&gt;AWS EMR&lt;br&gt;&lt;/b&gt;Spark Streaming&lt;br&gt;ProjectAccountingBalanceStateJob" style="points=[[0,0,0],[0.25,0,0],[0.5,0,0],[0.75,0,0],[1,0,0],[0,1,0],[0.25,1,0],[0.5,1,0],[0.75,1,0],[1,1,0],[0,0.25,0],[0,0.5,0],[0,0.75,0],[1,0.25,0],[1,0.5,0],[1,0.75,0]];outlineConnect=0;fontColor=#232F3E;gradientColor=#945DF2;gradientDirection=north;fillColor=#5A30B5;strokeColor=#ffffff;dashed=0;verticalLabelPosition=bottom;verticalAlign=top;align=center;html=1;fontSize=12;fontStyle=0;aspect=fixed;shape=mxgraph.aws4.resourceIcon;resIcon=mxgraph.aws4.emr;" parent="1" vertex="1">
          <mxGeometry x="1739" y="489.9999999999999" width="78" height="78" as="geometry" />
        </mxCell>
        <mxCell id="4qVqTRqzKTblFJhMyqPV-201" value="&lt;b&gt;AWS DynamoDB&lt;/b&gt;&lt;br&gt;AnalyticalAccountingBalanceDB&lt;br&gt;Accounting Balance" style="points=[[0,0,0],[0.25,0,0],[0.5,0,0],[0.75,0,0],[1,0,0],[0,1,0],[0.25,1,0],[0.5,1,0],[0.75,1,0],[1,1,0],[0,0.25,0],[0,0.5,0],[0,0.75,0],[1,0.25,0],[1,0.5,0],[1,0.75,0]];outlineConnect=0;fontColor=#232F3E;gradientColor=#4D72F3;gradientDirection=north;fillColor=#3334B9;strokeColor=#ffffff;dashed=0;verticalLabelPosition=bottom;verticalAlign=top;align=center;html=1;fontSize=12;fontStyle=0;aspect=fixed;shape=mxgraph.aws4.resourceIcon;resIcon=mxgraph.aws4.dynamodb;" parent="1" vertex="1">
          <mxGeometry x="1949" y="489.9999999999999" width="78" height="78" as="geometry" />
        </mxCell>
        <mxCell id="4qVqTRqzKTblFJhMyqPV-207" style="edgeStyle=orthogonalEdgeStyle;rounded=0;orthogonalLoop=1;jettySize=auto;html=1;entryX=0;entryY=0.5;entryDx=0;entryDy=0;entryPerimeter=0;fontColor=#00FF00;startArrow=none;startFill=0;endArrow=classic;endFill=1;" parent="1" source="4qVqTRqzKTblFJhMyqPV-204" target="4qVqTRqzKTblFJhMyqPV-205" edge="1">
          <mxGeometry relative="1" as="geometry" />
        </mxCell>
        <mxCell id="4qVqTRqzKTblFJhMyqPV-204" value="&lt;b&gt;AWS EMR&lt;br&gt;&lt;/b&gt;Spark Streaming&lt;br&gt;ProjectDailyAccountingBalanceJob" style="points=[[0,0,0],[0.25,0,0],[0.5,0,0],[0.75,0,0],[1,0,0],[0,1,0],[0.25,1,0],[0.5,1,0],[0.75,1,0],[1,1,0],[0,0.25,0],[0,0.5,0],[0,0.75,0],[1,0.25,0],[1,0.5,0],[1,0.75,0]];outlineConnect=0;fontColor=#232F3E;gradientColor=#945DF2;gradientDirection=north;fillColor=#5A30B5;strokeColor=#ffffff;dashed=0;verticalLabelPosition=bottom;verticalAlign=top;align=center;html=1;fontSize=12;fontStyle=0;aspect=fixed;shape=mxgraph.aws4.resourceIcon;resIcon=mxgraph.aws4.emr;" parent="1" vertex="1">
          <mxGeometry x="1739" y="670" width="78" height="78" as="geometry" />
        </mxCell>
        <mxCell id="4qVqTRqzKTblFJhMyqPV-205" value="&lt;b&gt;AWS S3&lt;/b&gt;&lt;br&gt;Bucket Raw&lt;br&gt;Parquet Format&lt;br&gt;Partitioned by Day&lt;br&gt;Daily Accounting Balance" style="points=[[0,0,0],[0.25,0,0],[0.5,0,0],[0.75,0,0],[1,0,0],[0,1,0],[0.25,1,0],[0.5,1,0],[0.75,1,0],[1,1,0],[0,0.25,0],[0,0.5,0],[0,0.75,0],[1,0.25,0],[1,0.5,0],[1,0.75,0]];outlineConnect=0;fontColor=#232F3E;gradientColor=#60A337;gradientDirection=north;fillColor=#277116;strokeColor=#ffffff;dashed=0;verticalLabelPosition=bottom;verticalAlign=top;align=center;html=1;fontSize=12;fontStyle=0;aspect=fixed;shape=mxgraph.aws4.resourceIcon;resIcon=mxgraph.aws4.s3;" parent="1" vertex="1">
          <mxGeometry x="1949" y="670" width="78" height="78" as="geometry" />
        </mxCell>
        <mxCell id="4qVqTRqzKTblFJhMyqPV-208" value="1:00 AM" style="shape=image;html=1;verticalAlign=bottom;verticalLabelPosition=top;labelBackgroundColor=#ffffff;imageAspect=0;aspect=fixed;image=https://cdn3.iconfinder.com/data/icons/material-inspired-2/16/27-128.png;labelPosition=center;align=center;" parent="1" vertex="1">
          <mxGeometry x="1800" y="640" width="42" height="42" as="geometry" />
        </mxCell>
        <mxCell id="ztVvOb2c4JuOCDaLwrAS-141" value="Em 2018-01-01 01:01" style="text;html=1;strokeColor=none;fillColor=none;align=center;verticalAlign=middle;whiteSpace=wrap;rounded=0;" vertex="1" parent="1">
          <mxGeometry x="-670" y="1590" width="120" height="20" as="geometry" />
        </mxCell>
        <mxCell id="ztVvOb2c4JuOCDaLwrAS-142" value="" style="shape=table;html=1;whiteSpace=wrap;startSize=0;container=1;collapsible=0;childLayout=tableLayout;" vertex="1" parent="1">
          <mxGeometry x="-680" y="2021" width="807" height="187" as="geometry" />
        </mxCell>
        <mxCell id="ztVvOb2c4JuOCDaLwrAS-143" value="" style="shape=partialRectangle;html=1;whiteSpace=wrap;collapsible=0;dropTarget=0;pointerEvents=0;fillColor=none;top=0;left=0;bottom=0;right=0;points=[[0,0.5],[1,0.5]];portConstraint=eastwest;" vertex="1" parent="ztVvOb2c4JuOCDaLwrAS-142">
          <mxGeometry width="807" height="27" as="geometry" />
        </mxCell>
        <mxCell id="ztVvOb2c4JuOCDaLwrAS-144" value="account_id" style="shape=partialRectangle;html=1;whiteSpace=wrap;connectable=0;fillColor=none;top=0;left=0;bottom=0;right=0;overflow=hidden;" vertex="1" parent="ztVvOb2c4JuOCDaLwrAS-143">
          <mxGeometry width="135" height="27" as="geometry" />
        </mxCell>
        <mxCell id="ztVvOb2c4JuOCDaLwrAS-145" value="entry_id" style="shape=partialRectangle;html=1;whiteSpace=wrap;connectable=0;fillColor=none;top=0;left=0;bottom=0;right=0;overflow=hidden;" vertex="1" parent="ztVvOb2c4JuOCDaLwrAS-143">
          <mxGeometry x="135" width="135" height="27" as="geometry" />
        </mxCell>
        <mxCell id="ztVvOb2c4JuOCDaLwrAS-146" value="transaction_id" style="shape=partialRectangle;html=1;whiteSpace=wrap;connectable=0;fillColor=none;top=0;left=0;bottom=0;right=0;overflow=hidden;" vertex="1" parent="ztVvOb2c4JuOCDaLwrAS-143">
          <mxGeometry x="270" width="135" height="27" as="geometry" />
        </mxCell>
        <mxCell id="ztVvOb2c4JuOCDaLwrAS-147" value="transaction_date_time" style="shape=partialRectangle;html=1;whiteSpace=wrap;connectable=0;fillColor=none;top=0;left=0;bottom=0;right=0;overflow=hidden;" vertex="1" parent="ztVvOb2c4JuOCDaLwrAS-143">
          <mxGeometry x="405" width="133" height="27" as="geometry" />
        </mxCell>
        <mxCell id="ztVvOb2c4JuOCDaLwrAS-148" value="accounting_date_time" style="shape=partialRectangle;html=1;whiteSpace=wrap;connectable=0;fillColor=none;top=0;left=0;bottom=0;right=0;overflow=hidden;" vertex="1" parent="ztVvOb2c4JuOCDaLwrAS-143">
          <mxGeometry x="538" width="134" height="27" as="geometry" />
        </mxCell>
        <mxCell id="ztVvOb2c4JuOCDaLwrAS-149" value="amount" style="shape=partialRectangle;html=1;whiteSpace=wrap;connectable=0;fillColor=none;top=0;left=0;bottom=0;right=0;overflow=hidden;" vertex="1" parent="ztVvOb2c4JuOCDaLwrAS-143">
          <mxGeometry x="672" width="135" height="27" as="geometry" />
        </mxCell>
        <mxCell id="ztVvOb2c4JuOCDaLwrAS-150" value="" style="shape=partialRectangle;html=1;whiteSpace=wrap;collapsible=0;dropTarget=0;pointerEvents=0;fillColor=none;top=0;left=0;bottom=0;right=0;points=[[0,0.5],[1,0.5]];portConstraint=eastwest;" vertex="1" parent="ztVvOb2c4JuOCDaLwrAS-142">
          <mxGeometry y="27" width="807" height="26" as="geometry" />
        </mxCell>
        <mxCell id="ztVvOb2c4JuOCDaLwrAS-151" value="&lt;span&gt;111111&lt;/span&gt;" style="shape=partialRectangle;html=1;whiteSpace=wrap;connectable=0;fillColor=none;top=0;left=0;bottom=0;right=0;overflow=hidden;" vertex="1" parent="ztVvOb2c4JuOCDaLwrAS-150">
          <mxGeometry width="135" height="26" as="geometry" />
        </mxCell>
        <mxCell id="ztVvOb2c4JuOCDaLwrAS-152" value="kjygfuyt" style="shape=partialRectangle;html=1;whiteSpace=wrap;connectable=0;fillColor=none;top=0;left=0;bottom=0;right=0;overflow=hidden;" vertex="1" parent="ztVvOb2c4JuOCDaLwrAS-150">
          <mxGeometry x="135" width="135" height="26" as="geometry" />
        </mxCell>
        <mxCell id="ztVvOb2c4JuOCDaLwrAS-153" value="awwdasd" style="shape=partialRectangle;html=1;whiteSpace=wrap;connectable=0;fillColor=none;top=0;left=0;bottom=0;right=0;overflow=hidden;" vertex="1" parent="ztVvOb2c4JuOCDaLwrAS-150">
          <mxGeometry x="270" width="135" height="26" as="geometry" />
        </mxCell>
        <mxCell id="ztVvOb2c4JuOCDaLwrAS-154" value="2017-12-31 01:00" style="shape=partialRectangle;html=1;whiteSpace=wrap;connectable=0;fillColor=none;top=0;left=0;bottom=0;right=0;overflow=hidden;" vertex="1" parent="ztVvOb2c4JuOCDaLwrAS-150">
          <mxGeometry x="405" width="133" height="26" as="geometry" />
        </mxCell>
        <mxCell id="ztVvOb2c4JuOCDaLwrAS-155" value="&lt;span&gt;2017-12-31 01:00&lt;/span&gt;" style="shape=partialRectangle;html=1;whiteSpace=wrap;connectable=0;fillColor=none;top=0;left=0;bottom=0;right=0;overflow=hidden;" vertex="1" parent="ztVvOb2c4JuOCDaLwrAS-150">
          <mxGeometry x="538" width="134" height="26" as="geometry" />
        </mxCell>
        <mxCell id="ztVvOb2c4JuOCDaLwrAS-156" value="-100" style="shape=partialRectangle;html=1;whiteSpace=wrap;connectable=0;fillColor=none;top=0;left=0;bottom=0;right=0;overflow=hidden;" vertex="1" parent="ztVvOb2c4JuOCDaLwrAS-150">
          <mxGeometry x="672" width="135" height="26" as="geometry" />
        </mxCell>
        <mxCell id="ztVvOb2c4JuOCDaLwrAS-185" style="shape=partialRectangle;html=1;whiteSpace=wrap;collapsible=0;dropTarget=0;pointerEvents=0;fillColor=none;top=0;left=0;bottom=0;right=0;points=[[0,0.5],[1,0.5]];portConstraint=eastwest;" vertex="1" parent="ztVvOb2c4JuOCDaLwrAS-142">
          <mxGeometry y="53" width="807" height="26" as="geometry" />
        </mxCell>
        <mxCell id="ztVvOb2c4JuOCDaLwrAS-186" value="111111" style="shape=partialRectangle;html=1;whiteSpace=wrap;connectable=0;fillColor=#d5e8d4;top=0;left=0;bottom=0;right=0;overflow=hidden;strokeColor=#82b366;" vertex="1" parent="ztVvOb2c4JuOCDaLwrAS-185">
          <mxGeometry width="135" height="26" as="geometry" />
        </mxCell>
        <mxCell id="ztVvOb2c4JuOCDaLwrAS-187" value="fwadsdw" style="shape=partialRectangle;html=1;whiteSpace=wrap;connectable=0;fillColor=#d5e8d4;top=0;left=0;bottom=0;right=0;overflow=hidden;strokeColor=#82b366;" vertex="1" parent="ztVvOb2c4JuOCDaLwrAS-185">
          <mxGeometry x="135" width="135" height="26" as="geometry" />
        </mxCell>
        <mxCell id="ztVvOb2c4JuOCDaLwrAS-188" value="&lt;span&gt;dwasdwa&lt;/span&gt;" style="shape=partialRectangle;html=1;whiteSpace=wrap;connectable=0;fillColor=#d5e8d4;top=0;left=0;bottom=0;right=0;overflow=hidden;strokeColor=#82b366;" vertex="1" parent="ztVvOb2c4JuOCDaLwrAS-185">
          <mxGeometry x="270" width="135" height="26" as="geometry" />
        </mxCell>
        <mxCell id="ztVvOb2c4JuOCDaLwrAS-189" value="&lt;span&gt;2018-01-01 09:00&lt;/span&gt;" style="shape=partialRectangle;html=1;whiteSpace=wrap;connectable=0;fillColor=#d5e8d4;top=0;left=0;bottom=0;right=0;overflow=hidden;strokeColor=#82b366;" vertex="1" parent="ztVvOb2c4JuOCDaLwrAS-185">
          <mxGeometry x="405" width="133" height="26" as="geometry" />
        </mxCell>
        <mxCell id="ztVvOb2c4JuOCDaLwrAS-190" value="&lt;span&gt;2017-12-30 00:00&lt;/span&gt;" style="shape=partialRectangle;html=1;whiteSpace=wrap;connectable=0;fillColor=#d5e8d4;top=0;left=0;bottom=0;right=0;overflow=hidden;strokeColor=#82b366;" vertex="1" parent="ztVvOb2c4JuOCDaLwrAS-185">
          <mxGeometry x="538" width="134" height="26" as="geometry" />
        </mxCell>
        <mxCell id="ztVvOb2c4JuOCDaLwrAS-191" value="-100" style="shape=partialRectangle;html=1;whiteSpace=wrap;connectable=0;fillColor=#d5e8d4;top=0;left=0;bottom=0;right=0;overflow=hidden;strokeColor=#82b366;" vertex="1" parent="ztVvOb2c4JuOCDaLwrAS-185">
          <mxGeometry x="672" width="135" height="26" as="geometry" />
        </mxCell>
        <mxCell id="ztVvOb2c4JuOCDaLwrAS-157" value="" style="shape=partialRectangle;html=1;whiteSpace=wrap;collapsible=0;dropTarget=0;pointerEvents=0;fillColor=none;top=0;left=0;bottom=0;right=0;points=[[0,0.5],[1,0.5]];portConstraint=eastwest;" vertex="1" parent="ztVvOb2c4JuOCDaLwrAS-142">
          <mxGeometry y="79" width="807" height="27" as="geometry" />
        </mxCell>
        <mxCell id="ztVvOb2c4JuOCDaLwrAS-158" value="&lt;span&gt;22222&lt;/span&gt;" style="shape=partialRectangle;html=1;whiteSpace=wrap;connectable=0;fillColor=none;top=0;left=0;bottom=0;right=0;overflow=hidden;" vertex="1" parent="ztVvOb2c4JuOCDaLwrAS-157">
          <mxGeometry width="135" height="27" as="geometry" />
        </mxCell>
        <mxCell id="ztVvOb2c4JuOCDaLwrAS-159" value="fgdgrdg" style="shape=partialRectangle;html=1;whiteSpace=wrap;connectable=0;fillColor=none;top=0;left=0;bottom=0;right=0;overflow=hidden;" vertex="1" parent="ztVvOb2c4JuOCDaLwrAS-157">
          <mxGeometry x="135" width="135" height="27" as="geometry" />
        </mxCell>
        <mxCell id="ztVvOb2c4JuOCDaLwrAS-160" value="awwdasd" style="shape=partialRectangle;html=1;whiteSpace=wrap;connectable=0;fillColor=none;top=0;left=0;bottom=0;right=0;overflow=hidden;" vertex="1" parent="ztVvOb2c4JuOCDaLwrAS-157">
          <mxGeometry x="270" width="135" height="27" as="geometry" />
        </mxCell>
        <mxCell id="ztVvOb2c4JuOCDaLwrAS-161" value="2017-12-31 01:00" style="shape=partialRectangle;html=1;whiteSpace=wrap;connectable=0;fillColor=none;top=0;left=0;bottom=0;right=0;overflow=hidden;" vertex="1" parent="ztVvOb2c4JuOCDaLwrAS-157">
          <mxGeometry x="405" width="133" height="27" as="geometry" />
        </mxCell>
        <mxCell id="ztVvOb2c4JuOCDaLwrAS-162" value="2017-12-31 01:00" style="shape=partialRectangle;html=1;whiteSpace=wrap;connectable=0;fillColor=none;top=0;left=0;bottom=0;right=0;overflow=hidden;" vertex="1" parent="ztVvOb2c4JuOCDaLwrAS-157">
          <mxGeometry x="538" width="134" height="27" as="geometry" />
        </mxCell>
        <mxCell id="ztVvOb2c4JuOCDaLwrAS-163" value="100" style="shape=partialRectangle;html=1;whiteSpace=wrap;connectable=0;fillColor=none;top=0;left=0;bottom=0;right=0;overflow=hidden;" vertex="1" parent="ztVvOb2c4JuOCDaLwrAS-157">
          <mxGeometry x="672" width="135" height="27" as="geometry" />
        </mxCell>
        <mxCell id="ztVvOb2c4JuOCDaLwrAS-164" value="" style="shape=partialRectangle;html=1;whiteSpace=wrap;collapsible=0;dropTarget=0;pointerEvents=0;fillColor=none;top=0;left=0;bottom=0;right=0;points=[[0,0.5],[1,0.5]];portConstraint=eastwest;" vertex="1" parent="ztVvOb2c4JuOCDaLwrAS-142">
          <mxGeometry y="106" width="807" height="27" as="geometry" />
        </mxCell>
        <mxCell id="ztVvOb2c4JuOCDaLwrAS-165" value="&lt;span&gt;22222&lt;/span&gt;" style="shape=partialRectangle;html=1;whiteSpace=wrap;connectable=0;fillColor=none;top=0;left=0;bottom=0;right=0;overflow=hidden;" vertex="1" parent="ztVvOb2c4JuOCDaLwrAS-164">
          <mxGeometry width="135" height="27" as="geometry" />
        </mxCell>
        <mxCell id="ztVvOb2c4JuOCDaLwrAS-166" value="oikyukty" style="shape=partialRectangle;html=1;whiteSpace=wrap;connectable=0;fillColor=none;top=0;left=0;bottom=0;right=0;overflow=hidden;" vertex="1" parent="ztVvOb2c4JuOCDaLwrAS-164">
          <mxGeometry x="135" width="135" height="27" as="geometry" />
        </mxCell>
        <mxCell id="ztVvOb2c4JuOCDaLwrAS-167" value="sdwadss" style="shape=partialRectangle;html=1;whiteSpace=wrap;connectable=0;fillColor=none;top=0;left=0;bottom=0;right=0;overflow=hidden;" vertex="1" parent="ztVvOb2c4JuOCDaLwrAS-164">
          <mxGeometry x="270" width="135" height="27" as="geometry" />
        </mxCell>
        <mxCell id="ztVvOb2c4JuOCDaLwrAS-168" value="&lt;span&gt;2017-12-31 01:01&lt;/span&gt;" style="shape=partialRectangle;html=1;whiteSpace=wrap;connectable=0;fillColor=none;top=0;left=0;bottom=0;right=0;overflow=hidden;" vertex="1" parent="ztVvOb2c4JuOCDaLwrAS-164">
          <mxGeometry x="405" width="133" height="27" as="geometry" />
        </mxCell>
        <mxCell id="ztVvOb2c4JuOCDaLwrAS-169" value="2017-12-31 01:01" style="shape=partialRectangle;html=1;whiteSpace=wrap;connectable=0;fillColor=none;top=0;left=0;bottom=0;right=0;overflow=hidden;" vertex="1" parent="ztVvOb2c4JuOCDaLwrAS-164">
          <mxGeometry x="538" width="134" height="27" as="geometry" />
        </mxCell>
        <mxCell id="ztVvOb2c4JuOCDaLwrAS-170" value="-100" style="shape=partialRectangle;html=1;whiteSpace=wrap;connectable=0;fillColor=none;top=0;left=0;bottom=0;right=0;overflow=hidden;" vertex="1" parent="ztVvOb2c4JuOCDaLwrAS-164">
          <mxGeometry x="672" width="135" height="27" as="geometry" />
        </mxCell>
        <mxCell id="ztVvOb2c4JuOCDaLwrAS-171" value="" style="shape=partialRectangle;html=1;whiteSpace=wrap;collapsible=0;dropTarget=0;pointerEvents=0;fillColor=none;top=0;left=0;bottom=0;right=0;points=[[0,0.5],[1,0.5]];portConstraint=eastwest;" vertex="1" parent="ztVvOb2c4JuOCDaLwrAS-142">
          <mxGeometry y="133" width="807" height="27" as="geometry" />
        </mxCell>
        <mxCell id="ztVvOb2c4JuOCDaLwrAS-172" value="&lt;span&gt;33333&lt;/span&gt;" style="shape=partialRectangle;html=1;whiteSpace=wrap;connectable=0;fillColor=none;top=0;left=0;bottom=0;right=0;overflow=hidden;" vertex="1" parent="ztVvOb2c4JuOCDaLwrAS-171">
          <mxGeometry width="135" height="27" as="geometry" />
        </mxCell>
        <mxCell id="ztVvOb2c4JuOCDaLwrAS-173" value="dasdqd" style="shape=partialRectangle;html=1;whiteSpace=wrap;connectable=0;fillColor=none;top=0;left=0;bottom=0;right=0;overflow=hidden;" vertex="1" parent="ztVvOb2c4JuOCDaLwrAS-171">
          <mxGeometry x="135" width="135" height="27" as="geometry" />
        </mxCell>
        <mxCell id="ztVvOb2c4JuOCDaLwrAS-174" value="sdwadss" style="shape=partialRectangle;html=1;whiteSpace=wrap;connectable=0;fillColor=none;top=0;left=0;bottom=0;right=0;overflow=hidden;" vertex="1" parent="ztVvOb2c4JuOCDaLwrAS-171">
          <mxGeometry x="270" width="135" height="27" as="geometry" />
        </mxCell>
        <mxCell id="ztVvOb2c4JuOCDaLwrAS-175" value="&lt;span&gt;2017-12-31 01:01&lt;/span&gt;" style="shape=partialRectangle;html=1;whiteSpace=wrap;connectable=0;fillColor=none;top=0;left=0;bottom=0;right=0;overflow=hidden;" vertex="1" parent="ztVvOb2c4JuOCDaLwrAS-171">
          <mxGeometry x="405" width="133" height="27" as="geometry" />
        </mxCell>
        <mxCell id="ztVvOb2c4JuOCDaLwrAS-176" value="2017-12-31 01:01" style="shape=partialRectangle;html=1;whiteSpace=wrap;connectable=0;fillColor=none;top=0;left=0;bottom=0;right=0;overflow=hidden;" vertex="1" parent="ztVvOb2c4JuOCDaLwrAS-171">
          <mxGeometry x="538" width="134" height="27" as="geometry" />
        </mxCell>
        <mxCell id="ztVvOb2c4JuOCDaLwrAS-177" value="100" style="shape=partialRectangle;html=1;whiteSpace=wrap;connectable=0;fillColor=none;top=0;left=0;bottom=0;right=0;overflow=hidden;" vertex="1" parent="ztVvOb2c4JuOCDaLwrAS-171">
          <mxGeometry x="672" width="135" height="27" as="geometry" />
        </mxCell>
        <mxCell id="ztVvOb2c4JuOCDaLwrAS-224" style="shape=partialRectangle;html=1;whiteSpace=wrap;collapsible=0;dropTarget=0;pointerEvents=0;fillColor=none;top=0;left=0;bottom=0;right=0;points=[[0,0.5],[1,0.5]];portConstraint=eastwest;" vertex="1" parent="ztVvOb2c4JuOCDaLwrAS-142">
          <mxGeometry y="160" width="807" height="27" as="geometry" />
        </mxCell>
        <mxCell id="ztVvOb2c4JuOCDaLwrAS-225" value="44444" style="shape=partialRectangle;html=1;whiteSpace=wrap;connectable=0;fillColor=#d5e8d4;top=0;left=0;bottom=0;right=0;overflow=hidden;strokeColor=#82b366;" vertex="1" parent="ztVvOb2c4JuOCDaLwrAS-224">
          <mxGeometry width="135" height="27" as="geometry" />
        </mxCell>
        <mxCell id="ztVvOb2c4JuOCDaLwrAS-226" value="jjkkkjkk" style="shape=partialRectangle;html=1;whiteSpace=wrap;connectable=0;fillColor=#d5e8d4;top=0;left=0;bottom=0;right=0;overflow=hidden;strokeColor=#82b366;" vertex="1" parent="ztVvOb2c4JuOCDaLwrAS-224">
          <mxGeometry x="135" width="135" height="27" as="geometry" />
        </mxCell>
        <mxCell id="ztVvOb2c4JuOCDaLwrAS-227" value="&lt;span&gt;dwasdwa&lt;/span&gt;" style="shape=partialRectangle;html=1;whiteSpace=wrap;connectable=0;fillColor=#d5e8d4;top=0;left=0;bottom=0;right=0;overflow=hidden;strokeColor=#82b366;" vertex="1" parent="ztVvOb2c4JuOCDaLwrAS-224">
          <mxGeometry x="270" width="135" height="27" as="geometry" />
        </mxCell>
        <mxCell id="ztVvOb2c4JuOCDaLwrAS-228" value="&lt;span&gt;2018-01-01 09:00&lt;/span&gt;" style="shape=partialRectangle;html=1;whiteSpace=wrap;connectable=0;fillColor=#d5e8d4;top=0;left=0;bottom=0;right=0;overflow=hidden;strokeColor=#82b366;" vertex="1" parent="ztVvOb2c4JuOCDaLwrAS-224">
          <mxGeometry x="405" width="133" height="27" as="geometry" />
        </mxCell>
        <mxCell id="ztVvOb2c4JuOCDaLwrAS-229" value="&lt;span&gt;2017-12-30 00:00&lt;/span&gt;" style="shape=partialRectangle;html=1;whiteSpace=wrap;connectable=0;fillColor=#d5e8d4;top=0;left=0;bottom=0;right=0;overflow=hidden;strokeColor=#82b366;" vertex="1" parent="ztVvOb2c4JuOCDaLwrAS-224">
          <mxGeometry x="538" width="134" height="27" as="geometry" />
        </mxCell>
        <mxCell id="ztVvOb2c4JuOCDaLwrAS-230" value="100" style="shape=partialRectangle;html=1;whiteSpace=wrap;connectable=0;fillColor=#d5e8d4;top=0;left=0;bottom=0;right=0;overflow=hidden;strokeColor=#82b366;" vertex="1" parent="ztVvOb2c4JuOCDaLwrAS-224">
          <mxGeometry x="672" width="135" height="27" as="geometry" />
        </mxCell>
        <mxCell id="ztVvOb2c4JuOCDaLwrAS-364" value="" style="shape=table;html=1;whiteSpace=wrap;startSize=0;container=1;collapsible=0;childLayout=tableLayout;" vertex="1" parent="1">
          <mxGeometry x="-670" y="1280" width="807" height="188" as="geometry" />
        </mxCell>
        <mxCell id="ztVvOb2c4JuOCDaLwrAS-365" value="" style="shape=partialRectangle;html=1;whiteSpace=wrap;collapsible=0;dropTarget=0;pointerEvents=0;fillColor=none;top=0;left=0;bottom=0;right=0;points=[[0,0.5],[1,0.5]];portConstraint=eastwest;" vertex="1" parent="ztVvOb2c4JuOCDaLwrAS-364">
          <mxGeometry width="807" height="27" as="geometry" />
        </mxCell>
        <mxCell id="ztVvOb2c4JuOCDaLwrAS-366" value="account_id" style="shape=partialRectangle;html=1;whiteSpace=wrap;connectable=0;fillColor=none;top=0;left=0;bottom=0;right=0;overflow=hidden;" vertex="1" parent="ztVvOb2c4JuOCDaLwrAS-365">
          <mxGeometry width="135" height="27" as="geometry" />
        </mxCell>
        <mxCell id="ztVvOb2c4JuOCDaLwrAS-367" value="entry_id" style="shape=partialRectangle;html=1;whiteSpace=wrap;connectable=0;fillColor=none;top=0;left=0;bottom=0;right=0;overflow=hidden;" vertex="1" parent="ztVvOb2c4JuOCDaLwrAS-365">
          <mxGeometry x="135" width="135" height="27" as="geometry" />
        </mxCell>
        <mxCell id="ztVvOb2c4JuOCDaLwrAS-368" value="transaction_id" style="shape=partialRectangle;html=1;whiteSpace=wrap;connectable=0;fillColor=none;top=0;left=0;bottom=0;right=0;overflow=hidden;" vertex="1" parent="ztVvOb2c4JuOCDaLwrAS-365">
          <mxGeometry x="270" width="135" height="27" as="geometry" />
        </mxCell>
        <mxCell id="ztVvOb2c4JuOCDaLwrAS-369" value="transaction_date_time" style="shape=partialRectangle;html=1;whiteSpace=wrap;connectable=0;fillColor=none;top=0;left=0;bottom=0;right=0;overflow=hidden;" vertex="1" parent="ztVvOb2c4JuOCDaLwrAS-365">
          <mxGeometry x="405" width="133" height="27" as="geometry" />
        </mxCell>
        <mxCell id="ztVvOb2c4JuOCDaLwrAS-370" value="accounting_date_time" style="shape=partialRectangle;html=1;whiteSpace=wrap;connectable=0;fillColor=none;top=0;left=0;bottom=0;right=0;overflow=hidden;" vertex="1" parent="ztVvOb2c4JuOCDaLwrAS-365">
          <mxGeometry x="538" width="134" height="27" as="geometry" />
        </mxCell>
        <mxCell id="ztVvOb2c4JuOCDaLwrAS-371" value="amount" style="shape=partialRectangle;html=1;whiteSpace=wrap;connectable=0;fillColor=none;top=0;left=0;bottom=0;right=0;overflow=hidden;" vertex="1" parent="ztVvOb2c4JuOCDaLwrAS-365">
          <mxGeometry x="672" width="135" height="27" as="geometry" />
        </mxCell>
        <mxCell id="ztVvOb2c4JuOCDaLwrAS-372" value="" style="shape=partialRectangle;html=1;whiteSpace=wrap;collapsible=0;dropTarget=0;pointerEvents=0;fillColor=none;top=0;left=0;bottom=0;right=0;points=[[0,0.5],[1,0.5]];portConstraint=eastwest;" vertex="1" parent="ztVvOb2c4JuOCDaLwrAS-364">
          <mxGeometry y="27" width="807" height="26" as="geometry" />
        </mxCell>
        <mxCell id="ztVvOb2c4JuOCDaLwrAS-373" value="&lt;span&gt;111111&lt;/span&gt;" style="shape=partialRectangle;html=1;whiteSpace=wrap;connectable=0;top=0;left=0;bottom=0;right=0;overflow=hidden;strokeColor=#82b366;fillColor=none;" vertex="1" parent="ztVvOb2c4JuOCDaLwrAS-372">
          <mxGeometry width="135" height="26" as="geometry" />
        </mxCell>
        <mxCell id="ztVvOb2c4JuOCDaLwrAS-374" value="" style="shape=partialRectangle;html=1;whiteSpace=wrap;connectable=0;top=0;left=0;bottom=0;right=0;overflow=hidden;strokeColor=#82b366;fillColor=none;" vertex="1" parent="ztVvOb2c4JuOCDaLwrAS-372">
          <mxGeometry x="135" width="135" height="26" as="geometry" />
        </mxCell>
        <mxCell id="ztVvOb2c4JuOCDaLwrAS-375" value="" style="shape=partialRectangle;html=1;whiteSpace=wrap;connectable=0;top=0;left=0;bottom=0;right=0;overflow=hidden;strokeColor=#82b366;fillColor=none;" vertex="1" parent="ztVvOb2c4JuOCDaLwrAS-372">
          <mxGeometry x="270" width="135" height="26" as="geometry" />
        </mxCell>
        <mxCell id="ztVvOb2c4JuOCDaLwrAS-376" value="2017-12-31 02:00" style="shape=partialRectangle;html=1;whiteSpace=wrap;connectable=0;top=0;left=0;bottom=0;right=0;overflow=hidden;strokeColor=#82b366;fillColor=none;" vertex="1" parent="ztVvOb2c4JuOCDaLwrAS-372">
          <mxGeometry x="405" width="133" height="26" as="geometry" />
        </mxCell>
        <mxCell id="ztVvOb2c4JuOCDaLwrAS-377" value="&lt;span&gt;2017-12-31 02:00&lt;/span&gt;" style="shape=partialRectangle;html=1;whiteSpace=wrap;connectable=0;top=0;left=0;bottom=0;right=0;overflow=hidden;strokeColor=#82b366;fillColor=none;" vertex="1" parent="ztVvOb2c4JuOCDaLwrAS-372">
          <mxGeometry x="538" width="134" height="26" as="geometry" />
        </mxCell>
        <mxCell id="ztVvOb2c4JuOCDaLwrAS-378" value="-100" style="shape=partialRectangle;html=1;whiteSpace=wrap;connectable=0;top=0;left=0;bottom=0;right=0;overflow=hidden;strokeColor=#82b366;fillColor=none;" vertex="1" parent="ztVvOb2c4JuOCDaLwrAS-372">
          <mxGeometry x="672" width="135" height="26" as="geometry" />
        </mxCell>
        <mxCell id="ztVvOb2c4JuOCDaLwrAS-386" value="" style="shape=partialRectangle;html=1;whiteSpace=wrap;collapsible=0;dropTarget=0;pointerEvents=0;fillColor=none;top=0;left=0;bottom=0;right=0;points=[[0,0.5],[1,0.5]];portConstraint=eastwest;" vertex="1" parent="ztVvOb2c4JuOCDaLwrAS-364">
          <mxGeometry y="53" width="807" height="27" as="geometry" />
        </mxCell>
        <mxCell id="ztVvOb2c4JuOCDaLwrAS-387" value="&lt;span&gt;111111&lt;/span&gt;" style="shape=partialRectangle;html=1;whiteSpace=wrap;connectable=0;top=0;left=0;bottom=0;right=0;overflow=hidden;strokeColor=#82b366;fillColor=none;" vertex="1" parent="ztVvOb2c4JuOCDaLwrAS-386">
          <mxGeometry width="135" height="27" as="geometry" />
        </mxCell>
        <mxCell id="ztVvOb2c4JuOCDaLwrAS-388" value="" style="shape=partialRectangle;html=1;whiteSpace=wrap;connectable=0;top=0;left=0;bottom=0;right=0;overflow=hidden;strokeColor=#82b366;fillColor=none;" vertex="1" parent="ztVvOb2c4JuOCDaLwrAS-386">
          <mxGeometry x="135" width="135" height="27" as="geometry" />
        </mxCell>
        <mxCell id="ztVvOb2c4JuOCDaLwrAS-389" value="" style="shape=partialRectangle;html=1;whiteSpace=wrap;connectable=0;top=0;left=0;bottom=0;right=0;overflow=hidden;strokeColor=#82b366;fillColor=none;" vertex="1" parent="ztVvOb2c4JuOCDaLwrAS-386">
          <mxGeometry x="270" width="135" height="27" as="geometry" />
        </mxCell>
        <mxCell id="ztVvOb2c4JuOCDaLwrAS-390" value="&lt;span&gt;2018-01-01 00:30&lt;/span&gt;" style="shape=partialRectangle;html=1;whiteSpace=wrap;connectable=0;top=0;left=0;bottom=0;right=0;overflow=hidden;strokeColor=#82b366;fillColor=none;" vertex="1" parent="ztVvOb2c4JuOCDaLwrAS-386">
          <mxGeometry x="405" width="133" height="27" as="geometry" />
        </mxCell>
        <mxCell id="ztVvOb2c4JuOCDaLwrAS-391" value="2017-12-31 00:00" style="shape=partialRectangle;html=1;whiteSpace=wrap;connectable=0;top=0;left=0;bottom=0;right=0;overflow=hidden;strokeColor=#82b366;fillColor=none;" vertex="1" parent="ztVvOb2c4JuOCDaLwrAS-386">
          <mxGeometry x="538" width="134" height="27" as="geometry" />
        </mxCell>
        <mxCell id="ztVvOb2c4JuOCDaLwrAS-392" value="-100" style="shape=partialRectangle;html=1;whiteSpace=wrap;connectable=0;top=0;left=0;bottom=0;right=0;overflow=hidden;strokeColor=#82b366;fillColor=none;" vertex="1" parent="ztVvOb2c4JuOCDaLwrAS-386">
          <mxGeometry x="672" width="135" height="27" as="geometry" />
        </mxCell>
        <mxCell id="ztVvOb2c4JuOCDaLwrAS-877" style="shape=partialRectangle;html=1;whiteSpace=wrap;collapsible=0;dropTarget=0;pointerEvents=0;fillColor=none;top=0;left=0;bottom=0;right=0;points=[[0,0.5],[1,0.5]];portConstraint=eastwest;" vertex="1" parent="ztVvOb2c4JuOCDaLwrAS-364">
          <mxGeometry y="80" width="807" height="27" as="geometry" />
        </mxCell>
        <mxCell id="ztVvOb2c4JuOCDaLwrAS-878" value="&lt;span&gt;111111&lt;/span&gt;" style="shape=partialRectangle;html=1;whiteSpace=wrap;connectable=0;top=0;left=0;bottom=0;right=0;overflow=hidden;strokeColor=#82b366;fillColor=none;" vertex="1" parent="ztVvOb2c4JuOCDaLwrAS-877">
          <mxGeometry width="135" height="27" as="geometry" />
        </mxCell>
        <mxCell id="ztVvOb2c4JuOCDaLwrAS-879" style="shape=partialRectangle;html=1;whiteSpace=wrap;connectable=0;top=0;left=0;bottom=0;right=0;overflow=hidden;strokeColor=#82b366;fillColor=none;" vertex="1" parent="ztVvOb2c4JuOCDaLwrAS-877">
          <mxGeometry x="135" width="135" height="27" as="geometry" />
        </mxCell>
        <mxCell id="ztVvOb2c4JuOCDaLwrAS-880" value="" style="shape=partialRectangle;html=1;whiteSpace=wrap;connectable=0;top=0;left=0;bottom=0;right=0;overflow=hidden;strokeColor=#82b366;fillColor=none;" vertex="1" parent="ztVvOb2c4JuOCDaLwrAS-877">
          <mxGeometry x="270" width="135" height="27" as="geometry" />
        </mxCell>
        <mxCell id="ztVvOb2c4JuOCDaLwrAS-881" value="&lt;span&gt;2018-01-01 00:31&lt;/span&gt;" style="shape=partialRectangle;html=1;whiteSpace=wrap;connectable=0;top=0;left=0;bottom=0;right=0;overflow=hidden;strokeColor=#82b366;fillColor=none;" vertex="1" parent="ztVvOb2c4JuOCDaLwrAS-877">
          <mxGeometry x="405" width="133" height="27" as="geometry" />
        </mxCell>
        <mxCell id="ztVvOb2c4JuOCDaLwrAS-882" value="2018-01-01 00:31" style="shape=partialRectangle;html=1;whiteSpace=wrap;connectable=0;top=0;left=0;bottom=0;right=0;overflow=hidden;strokeColor=#82b366;fillColor=none;" vertex="1" parent="ztVvOb2c4JuOCDaLwrAS-877">
          <mxGeometry x="538" width="134" height="27" as="geometry" />
        </mxCell>
        <mxCell id="ztVvOb2c4JuOCDaLwrAS-883" value="&lt;span&gt;-100&lt;/span&gt;" style="shape=partialRectangle;html=1;whiteSpace=wrap;connectable=0;top=0;left=0;bottom=0;right=0;overflow=hidden;strokeColor=#82b366;fillColor=none;" vertex="1" parent="ztVvOb2c4JuOCDaLwrAS-877">
          <mxGeometry x="672" width="135" height="27" as="geometry" />
        </mxCell>
        <mxCell id="ztVvOb2c4JuOCDaLwrAS-953" style="shape=partialRectangle;html=1;whiteSpace=wrap;collapsible=0;dropTarget=0;pointerEvents=0;fillColor=none;top=0;left=0;bottom=0;right=0;points=[[0,0.5],[1,0.5]];portConstraint=eastwest;" vertex="1" parent="ztVvOb2c4JuOCDaLwrAS-364">
          <mxGeometry y="107" width="807" height="27" as="geometry" />
        </mxCell>
        <mxCell id="ztVvOb2c4JuOCDaLwrAS-954" style="shape=partialRectangle;html=1;whiteSpace=wrap;connectable=0;top=0;left=0;bottom=0;right=0;overflow=hidden;strokeColor=#82b366;fillColor=none;" vertex="1" parent="ztVvOb2c4JuOCDaLwrAS-953">
          <mxGeometry width="135" height="27" as="geometry" />
        </mxCell>
        <mxCell id="ztVvOb2c4JuOCDaLwrAS-955" style="shape=partialRectangle;html=1;whiteSpace=wrap;connectable=0;top=0;left=0;bottom=0;right=0;overflow=hidden;strokeColor=#82b366;fillColor=none;" vertex="1" parent="ztVvOb2c4JuOCDaLwrAS-953">
          <mxGeometry x="135" width="135" height="27" as="geometry" />
        </mxCell>
        <mxCell id="ztVvOb2c4JuOCDaLwrAS-956" style="shape=partialRectangle;html=1;whiteSpace=wrap;connectable=0;top=0;left=0;bottom=0;right=0;overflow=hidden;strokeColor=#82b366;fillColor=none;" vertex="1" parent="ztVvOb2c4JuOCDaLwrAS-953">
          <mxGeometry x="270" width="135" height="27" as="geometry" />
        </mxCell>
        <mxCell id="ztVvOb2c4JuOCDaLwrAS-957" value="&lt;span&gt;2018-01-01 00:32&lt;/span&gt;" style="shape=partialRectangle;html=1;whiteSpace=wrap;connectable=0;top=0;left=0;bottom=0;right=0;overflow=hidden;strokeColor=#82b366;fillColor=none;" vertex="1" parent="ztVvOb2c4JuOCDaLwrAS-953">
          <mxGeometry x="405" width="133" height="27" as="geometry" />
        </mxCell>
        <mxCell id="ztVvOb2c4JuOCDaLwrAS-958" value="&lt;span&gt;2017-12-30 00:00&lt;/span&gt;" style="shape=partialRectangle;html=1;whiteSpace=wrap;connectable=0;top=0;left=0;bottom=0;right=0;overflow=hidden;strokeColor=#82b366;fillColor=none;" vertex="1" parent="ztVvOb2c4JuOCDaLwrAS-953">
          <mxGeometry x="538" width="134" height="27" as="geometry" />
        </mxCell>
        <mxCell id="ztVvOb2c4JuOCDaLwrAS-959" value="-100" style="shape=partialRectangle;html=1;whiteSpace=wrap;connectable=0;top=0;left=0;bottom=0;right=0;overflow=hidden;strokeColor=#82b366;fillColor=none;" vertex="1" parent="ztVvOb2c4JuOCDaLwrAS-953">
          <mxGeometry x="672" width="135" height="27" as="geometry" />
        </mxCell>
        <mxCell id="ztVvOb2c4JuOCDaLwrAS-891" style="shape=partialRectangle;html=1;whiteSpace=wrap;collapsible=0;dropTarget=0;pointerEvents=0;fillColor=none;top=0;left=0;bottom=0;right=0;points=[[0,0.5],[1,0.5]];portConstraint=eastwest;" vertex="1" parent="ztVvOb2c4JuOCDaLwrAS-364">
          <mxGeometry y="134" width="807" height="27" as="geometry" />
        </mxCell>
        <mxCell id="ztVvOb2c4JuOCDaLwrAS-892" value="&lt;span&gt;111111&lt;/span&gt;" style="shape=partialRectangle;html=1;whiteSpace=wrap;connectable=0;top=0;left=0;bottom=0;right=0;overflow=hidden;strokeColor=#82b366;fillColor=none;" vertex="1" parent="ztVvOb2c4JuOCDaLwrAS-891">
          <mxGeometry width="135" height="27" as="geometry" />
        </mxCell>
        <mxCell id="ztVvOb2c4JuOCDaLwrAS-893" style="shape=partialRectangle;html=1;whiteSpace=wrap;connectable=0;top=0;left=0;bottom=0;right=0;overflow=hidden;strokeColor=#82b366;fillColor=none;" vertex="1" parent="ztVvOb2c4JuOCDaLwrAS-891">
          <mxGeometry x="135" width="135" height="27" as="geometry" />
        </mxCell>
        <mxCell id="ztVvOb2c4JuOCDaLwrAS-894" value="" style="shape=partialRectangle;html=1;whiteSpace=wrap;connectable=0;top=0;left=0;bottom=0;right=0;overflow=hidden;strokeColor=#82b366;fillColor=none;" vertex="1" parent="ztVvOb2c4JuOCDaLwrAS-891">
          <mxGeometry x="270" width="135" height="27" as="geometry" />
        </mxCell>
        <mxCell id="ztVvOb2c4JuOCDaLwrAS-895" value="&lt;span&gt;2018-01-01 02:00&lt;/span&gt;" style="shape=partialRectangle;html=1;whiteSpace=wrap;connectable=0;top=0;left=0;bottom=0;right=0;overflow=hidden;strokeColor=#82b366;fillColor=none;" vertex="1" parent="ztVvOb2c4JuOCDaLwrAS-891">
          <mxGeometry x="405" width="133" height="27" as="geometry" />
        </mxCell>
        <mxCell id="ztVvOb2c4JuOCDaLwrAS-896" value="2018-01-01 02:00" style="shape=partialRectangle;html=1;whiteSpace=wrap;connectable=0;top=0;left=0;bottom=0;right=0;overflow=hidden;strokeColor=#82b366;fillColor=none;" vertex="1" parent="ztVvOb2c4JuOCDaLwrAS-891">
          <mxGeometry x="538" width="134" height="27" as="geometry" />
        </mxCell>
        <mxCell id="ztVvOb2c4JuOCDaLwrAS-897" value="-100" style="shape=partialRectangle;html=1;whiteSpace=wrap;connectable=0;top=0;left=0;bottom=0;right=0;overflow=hidden;strokeColor=#82b366;fillColor=none;" vertex="1" parent="ztVvOb2c4JuOCDaLwrAS-891">
          <mxGeometry x="672" width="135" height="27" as="geometry" />
        </mxCell>
        <mxCell id="ztVvOb2c4JuOCDaLwrAS-905" style="shape=partialRectangle;html=1;whiteSpace=wrap;collapsible=0;dropTarget=0;pointerEvents=0;fillColor=none;top=0;left=0;bottom=0;right=0;points=[[0,0.5],[1,0.5]];portConstraint=eastwest;" vertex="1" parent="ztVvOb2c4JuOCDaLwrAS-364">
          <mxGeometry y="161" width="807" height="27" as="geometry" />
        </mxCell>
        <mxCell id="ztVvOb2c4JuOCDaLwrAS-906" value="&lt;span&gt;111111&lt;/span&gt;" style="shape=partialRectangle;html=1;whiteSpace=wrap;connectable=0;top=0;left=0;bottom=0;right=0;overflow=hidden;strokeColor=#82b366;fillColor=none;" vertex="1" parent="ztVvOb2c4JuOCDaLwrAS-905">
          <mxGeometry width="135" height="27" as="geometry" />
        </mxCell>
        <mxCell id="ztVvOb2c4JuOCDaLwrAS-907" style="shape=partialRectangle;html=1;whiteSpace=wrap;connectable=0;top=0;left=0;bottom=0;right=0;overflow=hidden;strokeColor=#82b366;fillColor=none;" vertex="1" parent="ztVvOb2c4JuOCDaLwrAS-905">
          <mxGeometry x="135" width="135" height="27" as="geometry" />
        </mxCell>
        <mxCell id="ztVvOb2c4JuOCDaLwrAS-908" value="" style="shape=partialRectangle;html=1;whiteSpace=wrap;connectable=0;top=0;left=0;bottom=0;right=0;overflow=hidden;strokeColor=#82b366;fillColor=none;" vertex="1" parent="ztVvOb2c4JuOCDaLwrAS-905">
          <mxGeometry x="270" width="135" height="27" as="geometry" />
        </mxCell>
        <mxCell id="ztVvOb2c4JuOCDaLwrAS-909" value="&lt;span&gt;2018-01-01 02:30&lt;/span&gt;" style="shape=partialRectangle;html=1;whiteSpace=wrap;connectable=0;top=0;left=0;bottom=0;right=0;overflow=hidden;strokeColor=#82b366;fillColor=none;" vertex="1" parent="ztVvOb2c4JuOCDaLwrAS-905">
          <mxGeometry x="405" width="133" height="27" as="geometry" />
        </mxCell>
        <mxCell id="ztVvOb2c4JuOCDaLwrAS-910" value="&lt;span&gt;2017-12-31 00:00&lt;/span&gt;" style="shape=partialRectangle;html=1;whiteSpace=wrap;connectable=0;top=0;left=0;bottom=0;right=0;overflow=hidden;strokeColor=#82b366;fillColor=none;" vertex="1" parent="ztVvOb2c4JuOCDaLwrAS-905">
          <mxGeometry x="538" width="134" height="27" as="geometry" />
        </mxCell>
        <mxCell id="ztVvOb2c4JuOCDaLwrAS-911" value="&lt;span&gt;-100&lt;/span&gt;" style="shape=partialRectangle;html=1;whiteSpace=wrap;connectable=0;top=0;left=0;bottom=0;right=0;overflow=hidden;strokeColor=#82b366;fillColor=none;" vertex="1" parent="ztVvOb2c4JuOCDaLwrAS-905">
          <mxGeometry x="672" width="135" height="27" as="geometry" />
        </mxCell>
        <mxCell id="ztVvOb2c4JuOCDaLwrAS-400" value="" style="shape=table;html=1;whiteSpace=wrap;startSize=0;container=1;collapsible=0;childLayout=tableLayout;" vertex="1" parent="1">
          <mxGeometry x="-710" y="880" width="940" height="80" as="geometry" />
        </mxCell>
        <mxCell id="ztVvOb2c4JuOCDaLwrAS-401" value="" style="shape=partialRectangle;html=1;whiteSpace=wrap;collapsible=0;dropTarget=0;pointerEvents=0;fillColor=none;top=0;left=0;bottom=0;right=0;points=[[0,0.5],[1,0.5]];portConstraint=eastwest;" vertex="1" parent="ztVvOb2c4JuOCDaLwrAS-400">
          <mxGeometry width="940" height="27" as="geometry" />
        </mxCell>
        <mxCell id="ztVvOb2c4JuOCDaLwrAS-402" value="transaction_id" style="shape=partialRectangle;html=1;whiteSpace=wrap;connectable=0;fillColor=none;top=0;left=0;bottom=0;right=0;overflow=hidden;" vertex="1" parent="ztVvOb2c4JuOCDaLwrAS-401">
          <mxGeometry width="136" height="27" as="geometry" />
        </mxCell>
        <mxCell id="ztVvOb2c4JuOCDaLwrAS-403" value="&lt;span&gt;transaction_date_time&lt;/span&gt;" style="shape=partialRectangle;html=1;whiteSpace=wrap;connectable=0;fillColor=none;top=0;left=0;bottom=0;right=0;overflow=hidden;" vertex="1" parent="ztVvOb2c4JuOCDaLwrAS-401">
          <mxGeometry x="136" width="133" height="27" as="geometry" />
        </mxCell>
        <mxCell id="ztVvOb2c4JuOCDaLwrAS-404" value="&lt;span&gt;accounting_date_time&lt;/span&gt;" style="shape=partialRectangle;html=1;whiteSpace=wrap;connectable=0;fillColor=none;top=0;left=0;bottom=0;right=0;overflow=hidden;" vertex="1" parent="ztVvOb2c4JuOCDaLwrAS-401">
          <mxGeometry x="269" width="135" height="27" as="geometry" />
        </mxCell>
        <mxCell id="ztVvOb2c4JuOCDaLwrAS-405" value="debit_account_id" style="shape=partialRectangle;html=1;whiteSpace=wrap;connectable=0;fillColor=none;top=0;left=0;bottom=0;right=0;overflow=hidden;" vertex="1" parent="ztVvOb2c4JuOCDaLwrAS-401">
          <mxGeometry x="404" width="133" height="27" as="geometry" />
        </mxCell>
        <mxCell id="ztVvOb2c4JuOCDaLwrAS-406" value="credit_account_id" style="shape=partialRectangle;html=1;whiteSpace=wrap;connectable=0;fillColor=none;top=0;left=0;bottom=0;right=0;overflow=hidden;" vertex="1" parent="ztVvOb2c4JuOCDaLwrAS-401">
          <mxGeometry x="537" width="134" height="27" as="geometry" />
        </mxCell>
        <mxCell id="ztVvOb2c4JuOCDaLwrAS-407" value="amount" style="shape=partialRectangle;html=1;whiteSpace=wrap;connectable=0;fillColor=none;top=0;left=0;bottom=0;right=0;overflow=hidden;" vertex="1" parent="ztVvOb2c4JuOCDaLwrAS-401">
          <mxGeometry x="671" width="133" height="27" as="geometry" />
        </mxCell>
        <mxCell id="ztVvOb2c4JuOCDaLwrAS-408" value="status" style="shape=partialRectangle;html=1;whiteSpace=wrap;connectable=0;fillColor=none;top=0;left=0;bottom=0;right=0;overflow=hidden;" vertex="1" parent="ztVvOb2c4JuOCDaLwrAS-401">
          <mxGeometry x="804" width="136" height="27" as="geometry" />
        </mxCell>
        <mxCell id="ztVvOb2c4JuOCDaLwrAS-409" value="" style="shape=partialRectangle;html=1;whiteSpace=wrap;collapsible=0;dropTarget=0;pointerEvents=0;fillColor=none;top=0;left=0;bottom=0;right=0;points=[[0,0.5],[1,0.5]];portConstraint=eastwest;" vertex="1" parent="ztVvOb2c4JuOCDaLwrAS-400">
          <mxGeometry y="27" width="940" height="26" as="geometry" />
        </mxCell>
        <mxCell id="ztVvOb2c4JuOCDaLwrAS-410" value="awwdasd" style="shape=partialRectangle;html=1;whiteSpace=wrap;connectable=0;top=0;left=0;bottom=0;right=0;overflow=hidden;fillColor=none;" vertex="1" parent="ztVvOb2c4JuOCDaLwrAS-409">
          <mxGeometry width="136" height="26" as="geometry" />
        </mxCell>
        <mxCell id="ztVvOb2c4JuOCDaLwrAS-411" value="&lt;span&gt;2017-12-31 02:00&lt;/span&gt;" style="shape=partialRectangle;html=1;whiteSpace=wrap;connectable=0;top=0;left=0;bottom=0;right=0;overflow=hidden;fillColor=none;" vertex="1" parent="ztVvOb2c4JuOCDaLwrAS-409">
          <mxGeometry x="136" width="133" height="26" as="geometry" />
        </mxCell>
        <mxCell id="ztVvOb2c4JuOCDaLwrAS-412" value="&lt;span&gt;2017-12-31 02:00&lt;/span&gt;" style="shape=partialRectangle;html=1;whiteSpace=wrap;connectable=0;top=0;left=0;bottom=0;right=0;overflow=hidden;fillColor=none;" vertex="1" parent="ztVvOb2c4JuOCDaLwrAS-409">
          <mxGeometry x="269" width="135" height="26" as="geometry" />
        </mxCell>
        <mxCell id="ztVvOb2c4JuOCDaLwrAS-413" value="111111" style="shape=partialRectangle;html=1;whiteSpace=wrap;connectable=0;top=0;left=0;bottom=0;right=0;overflow=hidden;fillColor=none;" vertex="1" parent="ztVvOb2c4JuOCDaLwrAS-409">
          <mxGeometry x="404" width="133" height="26" as="geometry" />
        </mxCell>
        <mxCell id="ztVvOb2c4JuOCDaLwrAS-414" value="&lt;span&gt;22222&lt;/span&gt;" style="shape=partialRectangle;html=1;whiteSpace=wrap;connectable=0;top=0;left=0;bottom=0;right=0;overflow=hidden;fillColor=none;" vertex="1" parent="ztVvOb2c4JuOCDaLwrAS-409">
          <mxGeometry x="537" width="134" height="26" as="geometry" />
        </mxCell>
        <mxCell id="ztVvOb2c4JuOCDaLwrAS-415" value="100" style="shape=partialRectangle;html=1;whiteSpace=wrap;connectable=0;top=0;left=0;bottom=0;right=0;overflow=hidden;fillColor=none;" vertex="1" parent="ztVvOb2c4JuOCDaLwrAS-409">
          <mxGeometry x="671" width="133" height="26" as="geometry" />
        </mxCell>
        <mxCell id="ztVvOb2c4JuOCDaLwrAS-416" value="DONE" style="shape=partialRectangle;html=1;whiteSpace=wrap;connectable=0;top=0;left=0;bottom=0;right=0;overflow=hidden;fillColor=none;" vertex="1" parent="ztVvOb2c4JuOCDaLwrAS-409">
          <mxGeometry x="804" width="136" height="26" as="geometry" />
        </mxCell>
        <mxCell id="ztVvOb2c4JuOCDaLwrAS-417" value="" style="shape=partialRectangle;html=1;whiteSpace=wrap;collapsible=0;dropTarget=0;pointerEvents=0;fillColor=none;top=0;left=0;bottom=0;right=0;points=[[0,0.5],[1,0.5]];portConstraint=eastwest;" vertex="1" parent="ztVvOb2c4JuOCDaLwrAS-400">
          <mxGeometry y="53" width="940" height="27" as="geometry" />
        </mxCell>
        <mxCell id="ztVvOb2c4JuOCDaLwrAS-418" value="sdwadss" style="shape=partialRectangle;html=1;whiteSpace=wrap;connectable=0;top=0;left=0;bottom=0;right=0;overflow=hidden;fillColor=none;" vertex="1" parent="ztVvOb2c4JuOCDaLwrAS-417">
          <mxGeometry width="136" height="27" as="geometry" />
        </mxCell>
        <mxCell id="ztVvOb2c4JuOCDaLwrAS-419" value="&lt;span&gt;2018-01-31 00:30&lt;/span&gt;" style="shape=partialRectangle;html=1;whiteSpace=wrap;connectable=0;top=0;left=0;bottom=0;right=0;overflow=hidden;fillColor=none;" vertex="1" parent="ztVvOb2c4JuOCDaLwrAS-417">
          <mxGeometry x="136" width="133" height="27" as="geometry" />
        </mxCell>
        <mxCell id="ztVvOb2c4JuOCDaLwrAS-420" value="&lt;span&gt;2017-12-31 01:01&lt;/span&gt;" style="shape=partialRectangle;html=1;whiteSpace=wrap;connectable=0;top=0;left=0;bottom=0;right=0;overflow=hidden;fillColor=none;" vertex="1" parent="ztVvOb2c4JuOCDaLwrAS-417">
          <mxGeometry x="269" width="135" height="27" as="geometry" />
        </mxCell>
        <mxCell id="ztVvOb2c4JuOCDaLwrAS-421" value="111111" style="shape=partialRectangle;html=1;whiteSpace=wrap;connectable=0;top=0;left=0;bottom=0;right=0;overflow=hidden;fillColor=none;" vertex="1" parent="ztVvOb2c4JuOCDaLwrAS-417">
          <mxGeometry x="404" width="133" height="27" as="geometry" />
        </mxCell>
        <mxCell id="ztVvOb2c4JuOCDaLwrAS-422" value="22222" style="shape=partialRectangle;html=1;whiteSpace=wrap;connectable=0;top=0;left=0;bottom=0;right=0;overflow=hidden;fillColor=none;" vertex="1" parent="ztVvOb2c4JuOCDaLwrAS-417">
          <mxGeometry x="537" width="134" height="27" as="geometry" />
        </mxCell>
        <mxCell id="ztVvOb2c4JuOCDaLwrAS-423" value="100" style="shape=partialRectangle;html=1;whiteSpace=wrap;connectable=0;top=0;left=0;bottom=0;right=0;overflow=hidden;fillColor=none;" vertex="1" parent="ztVvOb2c4JuOCDaLwrAS-417">
          <mxGeometry x="671" width="133" height="27" as="geometry" />
        </mxCell>
        <mxCell id="ztVvOb2c4JuOCDaLwrAS-424" value="DONE" style="shape=partialRectangle;html=1;whiteSpace=wrap;connectable=0;top=0;left=0;bottom=0;right=0;overflow=hidden;fillColor=none;" vertex="1" parent="ztVvOb2c4JuOCDaLwrAS-417">
          <mxGeometry x="804" width="136" height="27" as="geometry" />
        </mxCell>
        <mxCell id="ztVvOb2c4JuOCDaLwrAS-449" value="Em 2018-01-02 01:00" style="text;html=1;strokeColor=none;fillColor=none;align=center;verticalAlign=middle;whiteSpace=wrap;rounded=0;" vertex="1" parent="1">
          <mxGeometry x="-680" y="2360" width="120" height="20" as="geometry" />
        </mxCell>
        <mxCell id="ztVvOb2c4JuOCDaLwrAS-551" value="" style="shape=table;html=1;whiteSpace=wrap;startSize=0;container=1;collapsible=0;childLayout=tableLayout;" vertex="1" parent="1">
          <mxGeometry x="-680" y="2520" width="807" height="187" as="geometry" />
        </mxCell>
        <mxCell id="ztVvOb2c4JuOCDaLwrAS-552" value="" style="shape=partialRectangle;html=1;whiteSpace=wrap;collapsible=0;dropTarget=0;pointerEvents=0;fillColor=none;top=0;left=0;bottom=0;right=0;points=[[0,0.5],[1,0.5]];portConstraint=eastwest;" vertex="1" parent="ztVvOb2c4JuOCDaLwrAS-551">
          <mxGeometry width="807" height="27" as="geometry" />
        </mxCell>
        <mxCell id="ztVvOb2c4JuOCDaLwrAS-553" value="account_id" style="shape=partialRectangle;html=1;whiteSpace=wrap;connectable=0;fillColor=none;top=0;left=0;bottom=0;right=0;overflow=hidden;" vertex="1" parent="ztVvOb2c4JuOCDaLwrAS-552">
          <mxGeometry width="135" height="27" as="geometry" />
        </mxCell>
        <mxCell id="ztVvOb2c4JuOCDaLwrAS-554" value="entry_id" style="shape=partialRectangle;html=1;whiteSpace=wrap;connectable=0;fillColor=none;top=0;left=0;bottom=0;right=0;overflow=hidden;" vertex="1" parent="ztVvOb2c4JuOCDaLwrAS-552">
          <mxGeometry x="135" width="135" height="27" as="geometry" />
        </mxCell>
        <mxCell id="ztVvOb2c4JuOCDaLwrAS-555" value="transaction_id" style="shape=partialRectangle;html=1;whiteSpace=wrap;connectable=0;fillColor=none;top=0;left=0;bottom=0;right=0;overflow=hidden;" vertex="1" parent="ztVvOb2c4JuOCDaLwrAS-552">
          <mxGeometry x="270" width="135" height="27" as="geometry" />
        </mxCell>
        <mxCell id="ztVvOb2c4JuOCDaLwrAS-556" value="transaction_date_time" style="shape=partialRectangle;html=1;whiteSpace=wrap;connectable=0;fillColor=none;top=0;left=0;bottom=0;right=0;overflow=hidden;" vertex="1" parent="ztVvOb2c4JuOCDaLwrAS-552">
          <mxGeometry x="405" width="133" height="27" as="geometry" />
        </mxCell>
        <mxCell id="ztVvOb2c4JuOCDaLwrAS-557" value="accounting_date_time" style="shape=partialRectangle;html=1;whiteSpace=wrap;connectable=0;fillColor=none;top=0;left=0;bottom=0;right=0;overflow=hidden;" vertex="1" parent="ztVvOb2c4JuOCDaLwrAS-552">
          <mxGeometry x="538" width="134" height="27" as="geometry" />
        </mxCell>
        <mxCell id="ztVvOb2c4JuOCDaLwrAS-558" value="amount" style="shape=partialRectangle;html=1;whiteSpace=wrap;connectable=0;fillColor=none;top=0;left=0;bottom=0;right=0;overflow=hidden;" vertex="1" parent="ztVvOb2c4JuOCDaLwrAS-552">
          <mxGeometry x="672" width="135" height="27" as="geometry" />
        </mxCell>
        <mxCell id="ztVvOb2c4JuOCDaLwrAS-559" value="" style="shape=partialRectangle;html=1;whiteSpace=wrap;collapsible=0;dropTarget=0;pointerEvents=0;fillColor=none;top=0;left=0;bottom=0;right=0;points=[[0,0.5],[1,0.5]];portConstraint=eastwest;" vertex="1" parent="ztVvOb2c4JuOCDaLwrAS-551">
          <mxGeometry y="27" width="807" height="26" as="geometry" />
        </mxCell>
        <mxCell id="ztVvOb2c4JuOCDaLwrAS-560" value="&lt;span&gt;111111&lt;/span&gt;" style="shape=partialRectangle;html=1;whiteSpace=wrap;connectable=0;fillColor=none;top=0;left=0;bottom=0;right=0;overflow=hidden;" vertex="1" parent="ztVvOb2c4JuOCDaLwrAS-559">
          <mxGeometry width="135" height="26" as="geometry" />
        </mxCell>
        <mxCell id="ztVvOb2c4JuOCDaLwrAS-561" value="kjygfuyt" style="shape=partialRectangle;html=1;whiteSpace=wrap;connectable=0;fillColor=none;top=0;left=0;bottom=0;right=0;overflow=hidden;" vertex="1" parent="ztVvOb2c4JuOCDaLwrAS-559">
          <mxGeometry x="135" width="135" height="26" as="geometry" />
        </mxCell>
        <mxCell id="ztVvOb2c4JuOCDaLwrAS-562" value="awwdasd" style="shape=partialRectangle;html=1;whiteSpace=wrap;connectable=0;fillColor=none;top=0;left=0;bottom=0;right=0;overflow=hidden;" vertex="1" parent="ztVvOb2c4JuOCDaLwrAS-559">
          <mxGeometry x="270" width="135" height="26" as="geometry" />
        </mxCell>
        <mxCell id="ztVvOb2c4JuOCDaLwrAS-563" value="2017-12-31 01:00" style="shape=partialRectangle;html=1;whiteSpace=wrap;connectable=0;fillColor=none;top=0;left=0;bottom=0;right=0;overflow=hidden;" vertex="1" parent="ztVvOb2c4JuOCDaLwrAS-559">
          <mxGeometry x="405" width="133" height="26" as="geometry" />
        </mxCell>
        <mxCell id="ztVvOb2c4JuOCDaLwrAS-564" value="&lt;span&gt;2017-12-31 01:00&lt;/span&gt;" style="shape=partialRectangle;html=1;whiteSpace=wrap;connectable=0;fillColor=none;top=0;left=0;bottom=0;right=0;overflow=hidden;" vertex="1" parent="ztVvOb2c4JuOCDaLwrAS-559">
          <mxGeometry x="538" width="134" height="26" as="geometry" />
        </mxCell>
        <mxCell id="ztVvOb2c4JuOCDaLwrAS-565" value="-100" style="shape=partialRectangle;html=1;whiteSpace=wrap;connectable=0;fillColor=none;top=0;left=0;bottom=0;right=0;overflow=hidden;" vertex="1" parent="ztVvOb2c4JuOCDaLwrAS-559">
          <mxGeometry x="672" width="135" height="26" as="geometry" />
        </mxCell>
        <mxCell id="ztVvOb2c4JuOCDaLwrAS-566" style="shape=partialRectangle;html=1;whiteSpace=wrap;collapsible=0;dropTarget=0;pointerEvents=0;fillColor=none;top=0;left=0;bottom=0;right=0;points=[[0,0.5],[1,0.5]];portConstraint=eastwest;" vertex="1" parent="ztVvOb2c4JuOCDaLwrAS-551">
          <mxGeometry y="53" width="807" height="26" as="geometry" />
        </mxCell>
        <mxCell id="ztVvOb2c4JuOCDaLwrAS-567" value="111111" style="shape=partialRectangle;html=1;whiteSpace=wrap;connectable=0;top=0;left=0;bottom=0;right=0;overflow=hidden;strokeColor=#82b366;fillColor=none;" vertex="1" parent="ztVvOb2c4JuOCDaLwrAS-566">
          <mxGeometry width="135" height="26" as="geometry" />
        </mxCell>
        <mxCell id="ztVvOb2c4JuOCDaLwrAS-568" value="fwadsdw" style="shape=partialRectangle;html=1;whiteSpace=wrap;connectable=0;top=0;left=0;bottom=0;right=0;overflow=hidden;strokeColor=#82b366;fillColor=none;" vertex="1" parent="ztVvOb2c4JuOCDaLwrAS-566">
          <mxGeometry x="135" width="135" height="26" as="geometry" />
        </mxCell>
        <mxCell id="ztVvOb2c4JuOCDaLwrAS-569" value="&lt;span&gt;dwasdwa&lt;/span&gt;" style="shape=partialRectangle;html=1;whiteSpace=wrap;connectable=0;top=0;left=0;bottom=0;right=0;overflow=hidden;strokeColor=#82b366;fillColor=none;" vertex="1" parent="ztVvOb2c4JuOCDaLwrAS-566">
          <mxGeometry x="270" width="135" height="26" as="geometry" />
        </mxCell>
        <mxCell id="ztVvOb2c4JuOCDaLwrAS-570" value="&lt;span&gt;2018-01-01 09:00&lt;/span&gt;" style="shape=partialRectangle;html=1;whiteSpace=wrap;connectable=0;top=0;left=0;bottom=0;right=0;overflow=hidden;strokeColor=#82b366;fillColor=none;" vertex="1" parent="ztVvOb2c4JuOCDaLwrAS-566">
          <mxGeometry x="405" width="133" height="26" as="geometry" />
        </mxCell>
        <mxCell id="ztVvOb2c4JuOCDaLwrAS-571" value="&lt;span&gt;2017-12-30 00:00&lt;/span&gt;" style="shape=partialRectangle;html=1;whiteSpace=wrap;connectable=0;top=0;left=0;bottom=0;right=0;overflow=hidden;strokeColor=#82b366;fillColor=none;" vertex="1" parent="ztVvOb2c4JuOCDaLwrAS-566">
          <mxGeometry x="538" width="134" height="26" as="geometry" />
        </mxCell>
        <mxCell id="ztVvOb2c4JuOCDaLwrAS-572" value="-100" style="shape=partialRectangle;html=1;whiteSpace=wrap;connectable=0;top=0;left=0;bottom=0;right=0;overflow=hidden;strokeColor=#82b366;fillColor=none;" vertex="1" parent="ztVvOb2c4JuOCDaLwrAS-566">
          <mxGeometry x="672" width="135" height="26" as="geometry" />
        </mxCell>
        <mxCell id="ztVvOb2c4JuOCDaLwrAS-573" value="" style="shape=partialRectangle;html=1;whiteSpace=wrap;collapsible=0;dropTarget=0;pointerEvents=0;fillColor=none;top=0;left=0;bottom=0;right=0;points=[[0,0.5],[1,0.5]];portConstraint=eastwest;" vertex="1" parent="ztVvOb2c4JuOCDaLwrAS-551">
          <mxGeometry y="79" width="807" height="27" as="geometry" />
        </mxCell>
        <mxCell id="ztVvOb2c4JuOCDaLwrAS-574" value="&lt;span&gt;22222&lt;/span&gt;" style="shape=partialRectangle;html=1;whiteSpace=wrap;connectable=0;fillColor=none;top=0;left=0;bottom=0;right=0;overflow=hidden;" vertex="1" parent="ztVvOb2c4JuOCDaLwrAS-573">
          <mxGeometry width="135" height="27" as="geometry" />
        </mxCell>
        <mxCell id="ztVvOb2c4JuOCDaLwrAS-575" value="fgdgrdg" style="shape=partialRectangle;html=1;whiteSpace=wrap;connectable=0;fillColor=none;top=0;left=0;bottom=0;right=0;overflow=hidden;" vertex="1" parent="ztVvOb2c4JuOCDaLwrAS-573">
          <mxGeometry x="135" width="135" height="27" as="geometry" />
        </mxCell>
        <mxCell id="ztVvOb2c4JuOCDaLwrAS-576" value="awwdasd" style="shape=partialRectangle;html=1;whiteSpace=wrap;connectable=0;fillColor=none;top=0;left=0;bottom=0;right=0;overflow=hidden;" vertex="1" parent="ztVvOb2c4JuOCDaLwrAS-573">
          <mxGeometry x="270" width="135" height="27" as="geometry" />
        </mxCell>
        <mxCell id="ztVvOb2c4JuOCDaLwrAS-577" value="2017-12-31 01:00" style="shape=partialRectangle;html=1;whiteSpace=wrap;connectable=0;fillColor=none;top=0;left=0;bottom=0;right=0;overflow=hidden;" vertex="1" parent="ztVvOb2c4JuOCDaLwrAS-573">
          <mxGeometry x="405" width="133" height="27" as="geometry" />
        </mxCell>
        <mxCell id="ztVvOb2c4JuOCDaLwrAS-578" value="2017-12-31 01:00" style="shape=partialRectangle;html=1;whiteSpace=wrap;connectable=0;fillColor=none;top=0;left=0;bottom=0;right=0;overflow=hidden;" vertex="1" parent="ztVvOb2c4JuOCDaLwrAS-573">
          <mxGeometry x="538" width="134" height="27" as="geometry" />
        </mxCell>
        <mxCell id="ztVvOb2c4JuOCDaLwrAS-579" value="100" style="shape=partialRectangle;html=1;whiteSpace=wrap;connectable=0;fillColor=none;top=0;left=0;bottom=0;right=0;overflow=hidden;" vertex="1" parent="ztVvOb2c4JuOCDaLwrAS-573">
          <mxGeometry x="672" width="135" height="27" as="geometry" />
        </mxCell>
        <mxCell id="ztVvOb2c4JuOCDaLwrAS-580" value="" style="shape=partialRectangle;html=1;whiteSpace=wrap;collapsible=0;dropTarget=0;pointerEvents=0;fillColor=none;top=0;left=0;bottom=0;right=0;points=[[0,0.5],[1,0.5]];portConstraint=eastwest;" vertex="1" parent="ztVvOb2c4JuOCDaLwrAS-551">
          <mxGeometry y="106" width="807" height="27" as="geometry" />
        </mxCell>
        <mxCell id="ztVvOb2c4JuOCDaLwrAS-581" value="&lt;span&gt;22222&lt;/span&gt;" style="shape=partialRectangle;html=1;whiteSpace=wrap;connectable=0;fillColor=none;top=0;left=0;bottom=0;right=0;overflow=hidden;" vertex="1" parent="ztVvOb2c4JuOCDaLwrAS-580">
          <mxGeometry width="135" height="27" as="geometry" />
        </mxCell>
        <mxCell id="ztVvOb2c4JuOCDaLwrAS-582" value="oikyukty" style="shape=partialRectangle;html=1;whiteSpace=wrap;connectable=0;fillColor=none;top=0;left=0;bottom=0;right=0;overflow=hidden;" vertex="1" parent="ztVvOb2c4JuOCDaLwrAS-580">
          <mxGeometry x="135" width="135" height="27" as="geometry" />
        </mxCell>
        <mxCell id="ztVvOb2c4JuOCDaLwrAS-583" value="sdwadss" style="shape=partialRectangle;html=1;whiteSpace=wrap;connectable=0;fillColor=none;top=0;left=0;bottom=0;right=0;overflow=hidden;" vertex="1" parent="ztVvOb2c4JuOCDaLwrAS-580">
          <mxGeometry x="270" width="135" height="27" as="geometry" />
        </mxCell>
        <mxCell id="ztVvOb2c4JuOCDaLwrAS-584" value="&lt;span&gt;2017-12-31 01:01&lt;/span&gt;" style="shape=partialRectangle;html=1;whiteSpace=wrap;connectable=0;fillColor=none;top=0;left=0;bottom=0;right=0;overflow=hidden;" vertex="1" parent="ztVvOb2c4JuOCDaLwrAS-580">
          <mxGeometry x="405" width="133" height="27" as="geometry" />
        </mxCell>
        <mxCell id="ztVvOb2c4JuOCDaLwrAS-585" value="2017-12-31 01:01" style="shape=partialRectangle;html=1;whiteSpace=wrap;connectable=0;fillColor=none;top=0;left=0;bottom=0;right=0;overflow=hidden;" vertex="1" parent="ztVvOb2c4JuOCDaLwrAS-580">
          <mxGeometry x="538" width="134" height="27" as="geometry" />
        </mxCell>
        <mxCell id="ztVvOb2c4JuOCDaLwrAS-586" value="-100" style="shape=partialRectangle;html=1;whiteSpace=wrap;connectable=0;fillColor=none;top=0;left=0;bottom=0;right=0;overflow=hidden;" vertex="1" parent="ztVvOb2c4JuOCDaLwrAS-580">
          <mxGeometry x="672" width="135" height="27" as="geometry" />
        </mxCell>
        <mxCell id="ztVvOb2c4JuOCDaLwrAS-587" value="" style="shape=partialRectangle;html=1;whiteSpace=wrap;collapsible=0;dropTarget=0;pointerEvents=0;fillColor=none;top=0;left=0;bottom=0;right=0;points=[[0,0.5],[1,0.5]];portConstraint=eastwest;" vertex="1" parent="ztVvOb2c4JuOCDaLwrAS-551">
          <mxGeometry y="133" width="807" height="27" as="geometry" />
        </mxCell>
        <mxCell id="ztVvOb2c4JuOCDaLwrAS-588" value="&lt;span&gt;33333&lt;/span&gt;" style="shape=partialRectangle;html=1;whiteSpace=wrap;connectable=0;fillColor=none;top=0;left=0;bottom=0;right=0;overflow=hidden;" vertex="1" parent="ztVvOb2c4JuOCDaLwrAS-587">
          <mxGeometry width="135" height="27" as="geometry" />
        </mxCell>
        <mxCell id="ztVvOb2c4JuOCDaLwrAS-589" value="dasdqd" style="shape=partialRectangle;html=1;whiteSpace=wrap;connectable=0;fillColor=none;top=0;left=0;bottom=0;right=0;overflow=hidden;" vertex="1" parent="ztVvOb2c4JuOCDaLwrAS-587">
          <mxGeometry x="135" width="135" height="27" as="geometry" />
        </mxCell>
        <mxCell id="ztVvOb2c4JuOCDaLwrAS-590" value="sdwadss" style="shape=partialRectangle;html=1;whiteSpace=wrap;connectable=0;fillColor=none;top=0;left=0;bottom=0;right=0;overflow=hidden;" vertex="1" parent="ztVvOb2c4JuOCDaLwrAS-587">
          <mxGeometry x="270" width="135" height="27" as="geometry" />
        </mxCell>
        <mxCell id="ztVvOb2c4JuOCDaLwrAS-591" value="&lt;span&gt;2017-12-31 01:01&lt;/span&gt;" style="shape=partialRectangle;html=1;whiteSpace=wrap;connectable=0;fillColor=none;top=0;left=0;bottom=0;right=0;overflow=hidden;" vertex="1" parent="ztVvOb2c4JuOCDaLwrAS-587">
          <mxGeometry x="405" width="133" height="27" as="geometry" />
        </mxCell>
        <mxCell id="ztVvOb2c4JuOCDaLwrAS-592" value="2017-12-31 01:01" style="shape=partialRectangle;html=1;whiteSpace=wrap;connectable=0;fillColor=none;top=0;left=0;bottom=0;right=0;overflow=hidden;" vertex="1" parent="ztVvOb2c4JuOCDaLwrAS-587">
          <mxGeometry x="538" width="134" height="27" as="geometry" />
        </mxCell>
        <mxCell id="ztVvOb2c4JuOCDaLwrAS-593" value="100" style="shape=partialRectangle;html=1;whiteSpace=wrap;connectable=0;fillColor=none;top=0;left=0;bottom=0;right=0;overflow=hidden;" vertex="1" parent="ztVvOb2c4JuOCDaLwrAS-587">
          <mxGeometry x="672" width="135" height="27" as="geometry" />
        </mxCell>
        <mxCell id="ztVvOb2c4JuOCDaLwrAS-594" style="shape=partialRectangle;html=1;whiteSpace=wrap;collapsible=0;dropTarget=0;pointerEvents=0;fillColor=none;top=0;left=0;bottom=0;right=0;points=[[0,0.5],[1,0.5]];portConstraint=eastwest;" vertex="1" parent="ztVvOb2c4JuOCDaLwrAS-551">
          <mxGeometry y="160" width="807" height="27" as="geometry" />
        </mxCell>
        <mxCell id="ztVvOb2c4JuOCDaLwrAS-595" value="44444" style="shape=partialRectangle;html=1;whiteSpace=wrap;connectable=0;top=0;left=0;bottom=0;right=0;overflow=hidden;strokeColor=#82b366;fillColor=none;" vertex="1" parent="ztVvOb2c4JuOCDaLwrAS-594">
          <mxGeometry width="135" height="27" as="geometry" />
        </mxCell>
        <mxCell id="ztVvOb2c4JuOCDaLwrAS-596" value="jjkkkjkk" style="shape=partialRectangle;html=1;whiteSpace=wrap;connectable=0;top=0;left=0;bottom=0;right=0;overflow=hidden;strokeColor=#82b366;fillColor=none;" vertex="1" parent="ztVvOb2c4JuOCDaLwrAS-594">
          <mxGeometry x="135" width="135" height="27" as="geometry" />
        </mxCell>
        <mxCell id="ztVvOb2c4JuOCDaLwrAS-597" value="&lt;span&gt;dwasdwa&lt;/span&gt;" style="shape=partialRectangle;html=1;whiteSpace=wrap;connectable=0;top=0;left=0;bottom=0;right=0;overflow=hidden;strokeColor=#82b366;fillColor=none;" vertex="1" parent="ztVvOb2c4JuOCDaLwrAS-594">
          <mxGeometry x="270" width="135" height="27" as="geometry" />
        </mxCell>
        <mxCell id="ztVvOb2c4JuOCDaLwrAS-598" value="&lt;span&gt;2018-01-01 09:00&lt;/span&gt;" style="shape=partialRectangle;html=1;whiteSpace=wrap;connectable=0;top=0;left=0;bottom=0;right=0;overflow=hidden;strokeColor=#82b366;fillColor=none;" vertex="1" parent="ztVvOb2c4JuOCDaLwrAS-594">
          <mxGeometry x="405" width="133" height="27" as="geometry" />
        </mxCell>
        <mxCell id="ztVvOb2c4JuOCDaLwrAS-599" value="&lt;span&gt;2017-12-30 00:00&lt;/span&gt;" style="shape=partialRectangle;html=1;whiteSpace=wrap;connectable=0;top=0;left=0;bottom=0;right=0;overflow=hidden;strokeColor=#82b366;fillColor=none;" vertex="1" parent="ztVvOb2c4JuOCDaLwrAS-594">
          <mxGeometry x="538" width="134" height="27" as="geometry" />
        </mxCell>
        <mxCell id="ztVvOb2c4JuOCDaLwrAS-600" value="100" style="shape=partialRectangle;html=1;whiteSpace=wrap;connectable=0;top=0;left=0;bottom=0;right=0;overflow=hidden;strokeColor=#82b366;fillColor=none;" vertex="1" parent="ztVvOb2c4JuOCDaLwrAS-594">
          <mxGeometry x="672" width="135" height="27" as="geometry" />
        </mxCell>
        <mxCell id="ztVvOb2c4JuOCDaLwrAS-601" value="" style="shape=table;html=1;whiteSpace=wrap;startSize=0;container=1;collapsible=0;childLayout=tableLayout;" vertex="1" parent="1">
          <mxGeometry x="-680" y="2730" width="810" height="187" as="geometry" />
        </mxCell>
        <mxCell id="ztVvOb2c4JuOCDaLwrAS-602" value="" style="shape=partialRectangle;html=1;whiteSpace=wrap;collapsible=0;dropTarget=0;pointerEvents=0;fillColor=none;top=0;left=0;bottom=0;right=0;points=[[0,0.5],[1,0.5]];portConstraint=eastwest;" vertex="1" parent="ztVvOb2c4JuOCDaLwrAS-601">
          <mxGeometry width="810" height="27" as="geometry" />
        </mxCell>
        <mxCell id="ztVvOb2c4JuOCDaLwrAS-603" value="account_id" style="shape=partialRectangle;html=1;whiteSpace=wrap;connectable=0;fillColor=none;top=0;left=0;bottom=0;right=0;overflow=hidden;" vertex="1" parent="ztVvOb2c4JuOCDaLwrAS-602">
          <mxGeometry width="162" height="27" as="geometry" />
        </mxCell>
        <mxCell id="ztVvOb2c4JuOCDaLwrAS-651" value="balance_id" style="shape=partialRectangle;html=1;whiteSpace=wrap;connectable=0;fillColor=none;top=0;left=0;bottom=0;right=0;overflow=hidden;" vertex="1" parent="ztVvOb2c4JuOCDaLwrAS-602">
          <mxGeometry x="162" width="162" height="27" as="geometry" />
        </mxCell>
        <mxCell id="ztVvOb2c4JuOCDaLwrAS-604" value="snapshot_date_time" style="shape=partialRectangle;html=1;whiteSpace=wrap;connectable=0;fillColor=none;top=0;left=0;bottom=0;right=0;overflow=hidden;" vertex="1" parent="ztVvOb2c4JuOCDaLwrAS-602">
          <mxGeometry x="324" width="162" height="27" as="geometry" />
        </mxCell>
        <mxCell id="ztVvOb2c4JuOCDaLwrAS-627" value="invalidated_at_date_time" style="shape=partialRectangle;html=1;whiteSpace=wrap;connectable=0;fillColor=none;top=0;left=0;bottom=0;right=0;overflow=hidden;" vertex="1" parent="ztVvOb2c4JuOCDaLwrAS-602">
          <mxGeometry x="486" width="162" height="27" as="geometry" />
        </mxCell>
        <mxCell id="ztVvOb2c4JuOCDaLwrAS-605" value="balance" style="shape=partialRectangle;html=1;whiteSpace=wrap;connectable=0;fillColor=none;top=0;left=0;bottom=0;right=0;overflow=hidden;" vertex="1" parent="ztVvOb2c4JuOCDaLwrAS-602">
          <mxGeometry x="648" width="162" height="27" as="geometry" />
        </mxCell>
        <mxCell id="ztVvOb2c4JuOCDaLwrAS-618" style="shape=partialRectangle;html=1;whiteSpace=wrap;collapsible=0;dropTarget=0;pointerEvents=0;fillColor=none;top=0;left=0;bottom=0;right=0;points=[[0,0.5],[1,0.5]];portConstraint=eastwest;" vertex="1" parent="ztVvOb2c4JuOCDaLwrAS-601">
          <mxGeometry y="27" width="810" height="27" as="geometry" />
        </mxCell>
        <mxCell id="ztVvOb2c4JuOCDaLwrAS-619" value="111111" style="shape=partialRectangle;html=1;whiteSpace=wrap;connectable=0;fillColor=#d5e8d4;top=0;left=0;bottom=0;right=0;overflow=hidden;strokeColor=#82b366;" vertex="1" parent="ztVvOb2c4JuOCDaLwrAS-618">
          <mxGeometry width="162" height="27" as="geometry" />
        </mxCell>
        <mxCell id="ztVvOb2c4JuOCDaLwrAS-652" style="shape=partialRectangle;html=1;whiteSpace=wrap;connectable=0;fillColor=#d5e8d4;top=0;left=0;bottom=0;right=0;overflow=hidden;strokeColor=#82b366;" vertex="1" parent="ztVvOb2c4JuOCDaLwrAS-618">
          <mxGeometry x="162" width="162" height="27" as="geometry" />
        </mxCell>
        <mxCell id="ztVvOb2c4JuOCDaLwrAS-620" value="&lt;span&gt;2017-12-31 01:00&lt;/span&gt;" style="shape=partialRectangle;html=1;whiteSpace=wrap;connectable=0;fillColor=#d5e8d4;top=0;left=0;bottom=0;right=0;overflow=hidden;strokeColor=#82b366;" vertex="1" parent="ztVvOb2c4JuOCDaLwrAS-618">
          <mxGeometry x="324" width="162" height="27" as="geometry" />
        </mxCell>
        <mxCell id="ztVvOb2c4JuOCDaLwrAS-628" style="shape=partialRectangle;html=1;whiteSpace=wrap;connectable=0;fillColor=#d5e8d4;top=0;left=0;bottom=0;right=0;overflow=hidden;strokeColor=#82b366;" vertex="1" parent="ztVvOb2c4JuOCDaLwrAS-618">
          <mxGeometry x="486" width="162" height="27" as="geometry" />
        </mxCell>
        <mxCell id="ztVvOb2c4JuOCDaLwrAS-621" value="-100" style="shape=partialRectangle;html=1;whiteSpace=wrap;connectable=0;fillColor=#d5e8d4;top=0;left=0;bottom=0;right=0;overflow=hidden;strokeColor=#82b366;" vertex="1" parent="ztVvOb2c4JuOCDaLwrAS-618">
          <mxGeometry x="648" width="162" height="27" as="geometry" />
        </mxCell>
        <mxCell id="ztVvOb2c4JuOCDaLwrAS-606" value="" style="shape=partialRectangle;html=1;whiteSpace=wrap;collapsible=0;dropTarget=0;pointerEvents=0;fillColor=none;top=0;left=0;bottom=0;right=0;points=[[0,0.5],[1,0.5]];portConstraint=eastwest;" vertex="1" parent="ztVvOb2c4JuOCDaLwrAS-601">
          <mxGeometry y="54" width="810" height="26" as="geometry" />
        </mxCell>
        <mxCell id="ztVvOb2c4JuOCDaLwrAS-607" value="111111" style="shape=partialRectangle;html=1;whiteSpace=wrap;connectable=0;top=0;left=0;bottom=0;right=0;overflow=hidden;strokeColor=#d6b656;fillColor=#fff2cc;" vertex="1" parent="ztVvOb2c4JuOCDaLwrAS-606">
          <mxGeometry width="162" height="26" as="geometry" />
        </mxCell>
        <mxCell id="ztVvOb2c4JuOCDaLwrAS-653" style="shape=partialRectangle;html=1;whiteSpace=wrap;connectable=0;top=0;left=0;bottom=0;right=0;overflow=hidden;strokeColor=#d6b656;fillColor=#fff2cc;" vertex="1" parent="ztVvOb2c4JuOCDaLwrAS-606">
          <mxGeometry x="162" width="162" height="26" as="geometry" />
        </mxCell>
        <mxCell id="ztVvOb2c4JuOCDaLwrAS-608" value="2018-01-01 01:01" style="shape=partialRectangle;html=1;whiteSpace=wrap;connectable=0;top=0;left=0;bottom=0;right=0;overflow=hidden;strokeColor=#d6b656;fillColor=#fff2cc;" vertex="1" parent="ztVvOb2c4JuOCDaLwrAS-606">
          <mxGeometry x="324" width="162" height="26" as="geometry" />
        </mxCell>
        <mxCell id="ztVvOb2c4JuOCDaLwrAS-629" value="2018-01-02 01:00" style="shape=partialRectangle;html=1;whiteSpace=wrap;connectable=0;top=0;left=0;bottom=0;right=0;overflow=hidden;strokeColor=#d6b656;fillColor=#fff2cc;" vertex="1" parent="ztVvOb2c4JuOCDaLwrAS-606">
          <mxGeometry x="486" width="162" height="26" as="geometry" />
        </mxCell>
        <mxCell id="ztVvOb2c4JuOCDaLwrAS-609" value="-100" style="shape=partialRectangle;html=1;whiteSpace=wrap;connectable=0;top=0;left=0;bottom=0;right=0;overflow=hidden;strokeColor=#d6b656;fillColor=#fff2cc;" vertex="1" parent="ztVvOb2c4JuOCDaLwrAS-606">
          <mxGeometry x="648" width="162" height="26" as="geometry" />
        </mxCell>
        <mxCell id="ztVvOb2c4JuOCDaLwrAS-632" style="shape=partialRectangle;html=1;whiteSpace=wrap;collapsible=0;dropTarget=0;pointerEvents=0;fillColor=none;top=0;left=0;bottom=0;right=0;points=[[0,0.5],[1,0.5]];portConstraint=eastwest;" vertex="1" parent="ztVvOb2c4JuOCDaLwrAS-601">
          <mxGeometry y="80" width="810" height="26" as="geometry" />
        </mxCell>
        <mxCell id="ztVvOb2c4JuOCDaLwrAS-633" value="&lt;span&gt;111111&lt;/span&gt;" style="shape=partialRectangle;html=1;whiteSpace=wrap;connectable=0;top=0;left=0;bottom=0;right=0;overflow=hidden;strokeColor=#82b366;fillColor=#d5e8d4;" vertex="1" parent="ztVvOb2c4JuOCDaLwrAS-632">
          <mxGeometry width="162" height="26" as="geometry" />
        </mxCell>
        <mxCell id="ztVvOb2c4JuOCDaLwrAS-654" style="shape=partialRectangle;html=1;whiteSpace=wrap;connectable=0;top=0;left=0;bottom=0;right=0;overflow=hidden;strokeColor=#82b366;fillColor=#d5e8d4;" vertex="1" parent="ztVvOb2c4JuOCDaLwrAS-632">
          <mxGeometry x="162" width="162" height="26" as="geometry" />
        </mxCell>
        <mxCell id="ztVvOb2c4JuOCDaLwrAS-634" value="2018-01-01 01:03" style="shape=partialRectangle;html=1;whiteSpace=wrap;connectable=0;top=0;left=0;bottom=0;right=0;overflow=hidden;strokeColor=#82b366;fillColor=#d5e8d4;" vertex="1" parent="ztVvOb2c4JuOCDaLwrAS-632">
          <mxGeometry x="324" width="162" height="26" as="geometry" />
        </mxCell>
        <mxCell id="ztVvOb2c4JuOCDaLwrAS-635" style="shape=partialRectangle;html=1;whiteSpace=wrap;connectable=0;top=0;left=0;bottom=0;right=0;overflow=hidden;strokeColor=#82b366;fillColor=#d5e8d4;" vertex="1" parent="ztVvOb2c4JuOCDaLwrAS-632">
          <mxGeometry x="486" width="162" height="26" as="geometry" />
        </mxCell>
        <mxCell id="ztVvOb2c4JuOCDaLwrAS-636" value="-200" style="shape=partialRectangle;html=1;whiteSpace=wrap;connectable=0;top=0;left=0;bottom=0;right=0;overflow=hidden;strokeColor=#82b366;fillColor=#d5e8d4;" vertex="1" parent="ztVvOb2c4JuOCDaLwrAS-632">
          <mxGeometry x="648" width="162" height="26" as="geometry" />
        </mxCell>
        <mxCell id="ztVvOb2c4JuOCDaLwrAS-610" value="" style="shape=partialRectangle;html=1;whiteSpace=wrap;collapsible=0;dropTarget=0;pointerEvents=0;fillColor=none;top=0;left=0;bottom=0;right=0;points=[[0,0.5],[1,0.5]];portConstraint=eastwest;" vertex="1" parent="ztVvOb2c4JuOCDaLwrAS-601">
          <mxGeometry y="106" width="810" height="27" as="geometry" />
        </mxCell>
        <mxCell id="ztVvOb2c4JuOCDaLwrAS-611" value="22222" style="shape=partialRectangle;html=1;whiteSpace=wrap;connectable=0;top=0;left=0;bottom=0;right=0;overflow=hidden;strokeColor=#82b366;fillColor=none;" vertex="1" parent="ztVvOb2c4JuOCDaLwrAS-610">
          <mxGeometry width="162" height="27" as="geometry" />
        </mxCell>
        <mxCell id="ztVvOb2c4JuOCDaLwrAS-655" style="shape=partialRectangle;html=1;whiteSpace=wrap;connectable=0;top=0;left=0;bottom=0;right=0;overflow=hidden;strokeColor=#82b366;fillColor=none;" vertex="1" parent="ztVvOb2c4JuOCDaLwrAS-610">
          <mxGeometry x="162" width="162" height="27" as="geometry" />
        </mxCell>
        <mxCell id="ztVvOb2c4JuOCDaLwrAS-612" value="2018-01-01 01:01" style="shape=partialRectangle;html=1;whiteSpace=wrap;connectable=0;top=0;left=0;bottom=0;right=0;overflow=hidden;strokeColor=#82b366;fillColor=none;" vertex="1" parent="ztVvOb2c4JuOCDaLwrAS-610">
          <mxGeometry x="324" width="162" height="27" as="geometry" />
        </mxCell>
        <mxCell id="ztVvOb2c4JuOCDaLwrAS-630" style="shape=partialRectangle;html=1;whiteSpace=wrap;connectable=0;top=0;left=0;bottom=0;right=0;overflow=hidden;strokeColor=#82b366;fillColor=none;" vertex="1" parent="ztVvOb2c4JuOCDaLwrAS-610">
          <mxGeometry x="486" width="162" height="27" as="geometry" />
        </mxCell>
        <mxCell id="ztVvOb2c4JuOCDaLwrAS-613" value="0" style="shape=partialRectangle;html=1;whiteSpace=wrap;connectable=0;top=0;left=0;bottom=0;right=0;overflow=hidden;strokeColor=#82b366;fillColor=none;" vertex="1" parent="ztVvOb2c4JuOCDaLwrAS-610">
          <mxGeometry x="648" width="162" height="27" as="geometry" />
        </mxCell>
        <mxCell id="ztVvOb2c4JuOCDaLwrAS-614" value="" style="shape=partialRectangle;html=1;whiteSpace=wrap;collapsible=0;dropTarget=0;pointerEvents=0;fillColor=none;top=0;left=0;bottom=0;right=0;points=[[0,0.5],[1,0.5]];portConstraint=eastwest;" vertex="1" parent="ztVvOb2c4JuOCDaLwrAS-601">
          <mxGeometry y="133" width="810" height="27" as="geometry" />
        </mxCell>
        <mxCell id="ztVvOb2c4JuOCDaLwrAS-615" value="33333" style="shape=partialRectangle;html=1;whiteSpace=wrap;connectable=0;top=0;left=0;bottom=0;right=0;overflow=hidden;strokeColor=#82b366;fillColor=none;" vertex="1" parent="ztVvOb2c4JuOCDaLwrAS-614">
          <mxGeometry width="162" height="27" as="geometry" />
        </mxCell>
        <mxCell id="ztVvOb2c4JuOCDaLwrAS-656" style="shape=partialRectangle;html=1;whiteSpace=wrap;connectable=0;top=0;left=0;bottom=0;right=0;overflow=hidden;strokeColor=#82b366;fillColor=none;" vertex="1" parent="ztVvOb2c4JuOCDaLwrAS-614">
          <mxGeometry x="162" width="162" height="27" as="geometry" />
        </mxCell>
        <mxCell id="ztVvOb2c4JuOCDaLwrAS-616" value="2018-01-01 01:01" style="shape=partialRectangle;html=1;whiteSpace=wrap;connectable=0;top=0;left=0;bottom=0;right=0;overflow=hidden;strokeColor=#82b366;fillColor=none;" vertex="1" parent="ztVvOb2c4JuOCDaLwrAS-614">
          <mxGeometry x="324" width="162" height="27" as="geometry" />
        </mxCell>
        <mxCell id="ztVvOb2c4JuOCDaLwrAS-631" style="shape=partialRectangle;html=1;whiteSpace=wrap;connectable=0;top=0;left=0;bottom=0;right=0;overflow=hidden;strokeColor=#82b366;fillColor=none;" vertex="1" parent="ztVvOb2c4JuOCDaLwrAS-614">
          <mxGeometry x="486" width="162" height="27" as="geometry" />
        </mxCell>
        <mxCell id="ztVvOb2c4JuOCDaLwrAS-617" value="100" style="shape=partialRectangle;html=1;whiteSpace=wrap;connectable=0;top=0;left=0;bottom=0;right=0;overflow=hidden;strokeColor=#82b366;fillColor=none;" vertex="1" parent="ztVvOb2c4JuOCDaLwrAS-614">
          <mxGeometry x="648" width="162" height="27" as="geometry" />
        </mxCell>
        <mxCell id="ztVvOb2c4JuOCDaLwrAS-638" style="shape=partialRectangle;html=1;whiteSpace=wrap;collapsible=0;dropTarget=0;pointerEvents=0;fillColor=none;top=0;left=0;bottom=0;right=0;points=[[0,0.5],[1,0.5]];portConstraint=eastwest;" vertex="1" parent="ztVvOb2c4JuOCDaLwrAS-601">
          <mxGeometry y="160" width="810" height="27" as="geometry" />
        </mxCell>
        <mxCell id="ztVvOb2c4JuOCDaLwrAS-639" value="44444" style="shape=partialRectangle;html=1;whiteSpace=wrap;connectable=0;top=0;left=0;bottom=0;right=0;overflow=hidden;strokeColor=#82b366;fillColor=#d5e8d4;" vertex="1" parent="ztVvOb2c4JuOCDaLwrAS-638">
          <mxGeometry width="162" height="27" as="geometry" />
        </mxCell>
        <mxCell id="ztVvOb2c4JuOCDaLwrAS-657" style="shape=partialRectangle;html=1;whiteSpace=wrap;connectable=0;top=0;left=0;bottom=0;right=0;overflow=hidden;strokeColor=#82b366;fillColor=#d5e8d4;" vertex="1" parent="ztVvOb2c4JuOCDaLwrAS-638">
          <mxGeometry x="162" width="162" height="27" as="geometry" />
        </mxCell>
        <mxCell id="ztVvOb2c4JuOCDaLwrAS-640" value="2017-12-31 00:00" style="shape=partialRectangle;html=1;whiteSpace=wrap;connectable=0;top=0;left=0;bottom=0;right=0;overflow=hidden;strokeColor=#82b366;fillColor=#d5e8d4;" vertex="1" parent="ztVvOb2c4JuOCDaLwrAS-638">
          <mxGeometry x="324" width="162" height="27" as="geometry" />
        </mxCell>
        <mxCell id="ztVvOb2c4JuOCDaLwrAS-641" style="shape=partialRectangle;html=1;whiteSpace=wrap;connectable=0;top=0;left=0;bottom=0;right=0;overflow=hidden;strokeColor=#82b366;fillColor=#d5e8d4;" vertex="1" parent="ztVvOb2c4JuOCDaLwrAS-638">
          <mxGeometry x="486" width="162" height="27" as="geometry" />
        </mxCell>
        <mxCell id="ztVvOb2c4JuOCDaLwrAS-642" value="100" style="shape=partialRectangle;html=1;whiteSpace=wrap;connectable=0;top=0;left=0;bottom=0;right=0;overflow=hidden;strokeColor=#82b366;fillColor=#d5e8d4;" vertex="1" parent="ztVvOb2c4JuOCDaLwrAS-638">
          <mxGeometry x="648" width="162" height="27" as="geometry" />
        </mxCell>
        <mxCell id="ztVvOb2c4JuOCDaLwrAS-666" value="" style="shape=table;html=1;whiteSpace=wrap;startSize=0;container=1;collapsible=0;childLayout=tableLayout;" vertex="1" parent="1">
          <mxGeometry x="-680" y="2231" width="810" height="107" as="geometry" />
        </mxCell>
        <mxCell id="ztVvOb2c4JuOCDaLwrAS-667" value="" style="shape=partialRectangle;html=1;whiteSpace=wrap;collapsible=0;dropTarget=0;pointerEvents=0;fillColor=none;top=0;left=0;bottom=0;right=0;points=[[0,0.5],[1,0.5]];portConstraint=eastwest;" vertex="1" parent="ztVvOb2c4JuOCDaLwrAS-666">
          <mxGeometry width="810" height="27" as="geometry" />
        </mxCell>
        <mxCell id="ztVvOb2c4JuOCDaLwrAS-668" value="account_id" style="shape=partialRectangle;html=1;whiteSpace=wrap;connectable=0;fillColor=none;top=0;left=0;bottom=0;right=0;overflow=hidden;" vertex="1" parent="ztVvOb2c4JuOCDaLwrAS-667">
          <mxGeometry width="162" height="27" as="geometry" />
        </mxCell>
        <mxCell id="ztVvOb2c4JuOCDaLwrAS-669" value="balance_id" style="shape=partialRectangle;html=1;whiteSpace=wrap;connectable=0;fillColor=none;top=0;left=0;bottom=0;right=0;overflow=hidden;" vertex="1" parent="ztVvOb2c4JuOCDaLwrAS-667">
          <mxGeometry x="162" width="161" height="27" as="geometry" />
        </mxCell>
        <mxCell id="ztVvOb2c4JuOCDaLwrAS-670" value="snapshot_date_time" style="shape=partialRectangle;html=1;whiteSpace=wrap;connectable=0;fillColor=none;top=0;left=0;bottom=0;right=0;overflow=hidden;" vertex="1" parent="ztVvOb2c4JuOCDaLwrAS-667">
          <mxGeometry x="323" width="163" height="27" as="geometry" />
        </mxCell>
        <mxCell id="ztVvOb2c4JuOCDaLwrAS-671" value="&lt;span&gt;invalidated_at_date_time&lt;/span&gt;" style="shape=partialRectangle;html=1;whiteSpace=wrap;connectable=0;fillColor=none;top=0;left=0;bottom=0;right=0;overflow=hidden;" vertex="1" parent="ztVvOb2c4JuOCDaLwrAS-667">
          <mxGeometry x="486" width="162" height="27" as="geometry" />
        </mxCell>
        <mxCell id="ztVvOb2c4JuOCDaLwrAS-672" value="balance" style="shape=partialRectangle;html=1;whiteSpace=wrap;connectable=0;fillColor=none;top=0;left=0;bottom=0;right=0;overflow=hidden;" vertex="1" parent="ztVvOb2c4JuOCDaLwrAS-667">
          <mxGeometry x="648" width="162" height="27" as="geometry" />
        </mxCell>
        <mxCell id="ztVvOb2c4JuOCDaLwrAS-673" value="" style="shape=partialRectangle;html=1;whiteSpace=wrap;collapsible=0;dropTarget=0;pointerEvents=0;fillColor=none;top=0;left=0;bottom=0;right=0;points=[[0,0.5],[1,0.5]];portConstraint=eastwest;" vertex="1" parent="ztVvOb2c4JuOCDaLwrAS-666">
          <mxGeometry y="27" width="810" height="26" as="geometry" />
        </mxCell>
        <mxCell id="ztVvOb2c4JuOCDaLwrAS-674" value="111111" style="shape=partialRectangle;html=1;whiteSpace=wrap;connectable=0;top=0;left=0;bottom=0;right=0;overflow=hidden;strokeColor=#82b366;fillColor=none;" vertex="1" parent="ztVvOb2c4JuOCDaLwrAS-673">
          <mxGeometry width="162" height="26" as="geometry" />
        </mxCell>
        <mxCell id="ztVvOb2c4JuOCDaLwrAS-675" style="shape=partialRectangle;html=1;whiteSpace=wrap;connectable=0;top=0;left=0;bottom=0;right=0;overflow=hidden;strokeColor=#82b366;fillColor=none;" vertex="1" parent="ztVvOb2c4JuOCDaLwrAS-673">
          <mxGeometry x="162" width="161" height="26" as="geometry" />
        </mxCell>
        <mxCell id="ztVvOb2c4JuOCDaLwrAS-676" value="2018-01-01 01:01" style="shape=partialRectangle;html=1;whiteSpace=wrap;connectable=0;top=0;left=0;bottom=0;right=0;overflow=hidden;strokeColor=#82b366;fillColor=none;" vertex="1" parent="ztVvOb2c4JuOCDaLwrAS-673">
          <mxGeometry x="323" width="163" height="26" as="geometry" />
        </mxCell>
        <mxCell id="ztVvOb2c4JuOCDaLwrAS-677" style="shape=partialRectangle;html=1;whiteSpace=wrap;connectable=0;top=0;left=0;bottom=0;right=0;overflow=hidden;strokeColor=#82b366;fillColor=none;" vertex="1" parent="ztVvOb2c4JuOCDaLwrAS-673">
          <mxGeometry x="486" width="162" height="26" as="geometry" />
        </mxCell>
        <mxCell id="ztVvOb2c4JuOCDaLwrAS-678" value="-100" style="shape=partialRectangle;html=1;whiteSpace=wrap;connectable=0;top=0;left=0;bottom=0;right=0;overflow=hidden;strokeColor=#82b366;fillColor=none;" vertex="1" parent="ztVvOb2c4JuOCDaLwrAS-673">
          <mxGeometry x="648" width="162" height="26" as="geometry" />
        </mxCell>
        <mxCell id="ztVvOb2c4JuOCDaLwrAS-679" value="" style="shape=partialRectangle;html=1;whiteSpace=wrap;collapsible=0;dropTarget=0;pointerEvents=0;fillColor=none;top=0;left=0;bottom=0;right=0;points=[[0,0.5],[1,0.5]];portConstraint=eastwest;" vertex="1" parent="ztVvOb2c4JuOCDaLwrAS-666">
          <mxGeometry y="53" width="810" height="27" as="geometry" />
        </mxCell>
        <mxCell id="ztVvOb2c4JuOCDaLwrAS-680" value="22222" style="shape=partialRectangle;html=1;whiteSpace=wrap;connectable=0;top=0;left=0;bottom=0;right=0;overflow=hidden;strokeColor=#82b366;fillColor=none;" vertex="1" parent="ztVvOb2c4JuOCDaLwrAS-679">
          <mxGeometry width="162" height="27" as="geometry" />
        </mxCell>
        <mxCell id="ztVvOb2c4JuOCDaLwrAS-681" style="shape=partialRectangle;html=1;whiteSpace=wrap;connectable=0;top=0;left=0;bottom=0;right=0;overflow=hidden;strokeColor=#82b366;fillColor=none;" vertex="1" parent="ztVvOb2c4JuOCDaLwrAS-679">
          <mxGeometry x="162" width="161" height="27" as="geometry" />
        </mxCell>
        <mxCell id="ztVvOb2c4JuOCDaLwrAS-682" value="2018-01-01 01:01" style="shape=partialRectangle;html=1;whiteSpace=wrap;connectable=0;top=0;left=0;bottom=0;right=0;overflow=hidden;strokeColor=#82b366;fillColor=none;" vertex="1" parent="ztVvOb2c4JuOCDaLwrAS-679">
          <mxGeometry x="323" width="163" height="27" as="geometry" />
        </mxCell>
        <mxCell id="ztVvOb2c4JuOCDaLwrAS-683" style="shape=partialRectangle;html=1;whiteSpace=wrap;connectable=0;top=0;left=0;bottom=0;right=0;overflow=hidden;strokeColor=#82b366;fillColor=none;" vertex="1" parent="ztVvOb2c4JuOCDaLwrAS-679">
          <mxGeometry x="486" width="162" height="27" as="geometry" />
        </mxCell>
        <mxCell id="ztVvOb2c4JuOCDaLwrAS-684" value="0" style="shape=partialRectangle;html=1;whiteSpace=wrap;connectable=0;top=0;left=0;bottom=0;right=0;overflow=hidden;strokeColor=#82b366;fillColor=none;" vertex="1" parent="ztVvOb2c4JuOCDaLwrAS-679">
          <mxGeometry x="648" width="162" height="27" as="geometry" />
        </mxCell>
        <mxCell id="ztVvOb2c4JuOCDaLwrAS-685" value="" style="shape=partialRectangle;html=1;whiteSpace=wrap;collapsible=0;dropTarget=0;pointerEvents=0;fillColor=none;top=0;left=0;bottom=0;right=0;points=[[0,0.5],[1,0.5]];portConstraint=eastwest;" vertex="1" parent="ztVvOb2c4JuOCDaLwrAS-666">
          <mxGeometry y="80" width="810" height="27" as="geometry" />
        </mxCell>
        <mxCell id="ztVvOb2c4JuOCDaLwrAS-686" value="33333" style="shape=partialRectangle;html=1;whiteSpace=wrap;connectable=0;top=0;left=0;bottom=0;right=0;overflow=hidden;strokeColor=#82b366;fillColor=none;" vertex="1" parent="ztVvOb2c4JuOCDaLwrAS-685">
          <mxGeometry width="162" height="27" as="geometry" />
        </mxCell>
        <mxCell id="ztVvOb2c4JuOCDaLwrAS-687" style="shape=partialRectangle;html=1;whiteSpace=wrap;connectable=0;top=0;left=0;bottom=0;right=0;overflow=hidden;strokeColor=#82b366;fillColor=none;" vertex="1" parent="ztVvOb2c4JuOCDaLwrAS-685">
          <mxGeometry x="162" width="161" height="27" as="geometry" />
        </mxCell>
        <mxCell id="ztVvOb2c4JuOCDaLwrAS-688" value="2018-01-01 01:01" style="shape=partialRectangle;html=1;whiteSpace=wrap;connectable=0;top=0;left=0;bottom=0;right=0;overflow=hidden;strokeColor=#82b366;fillColor=none;" vertex="1" parent="ztVvOb2c4JuOCDaLwrAS-685">
          <mxGeometry x="323" width="163" height="27" as="geometry" />
        </mxCell>
        <mxCell id="ztVvOb2c4JuOCDaLwrAS-689" style="shape=partialRectangle;html=1;whiteSpace=wrap;connectable=0;top=0;left=0;bottom=0;right=0;overflow=hidden;strokeColor=#82b366;fillColor=none;" vertex="1" parent="ztVvOb2c4JuOCDaLwrAS-685">
          <mxGeometry x="486" width="162" height="27" as="geometry" />
        </mxCell>
        <mxCell id="ztVvOb2c4JuOCDaLwrAS-690" value="100" style="shape=partialRectangle;html=1;whiteSpace=wrap;connectable=0;top=0;left=0;bottom=0;right=0;overflow=hidden;strokeColor=#82b366;fillColor=none;" vertex="1" parent="ztVvOb2c4JuOCDaLwrAS-685">
          <mxGeometry x="648" width="162" height="27" as="geometry" />
        </mxCell>
        <mxCell id="ztVvOb2c4JuOCDaLwrAS-739" value="" style="shape=table;html=1;whiteSpace=wrap;startSize=0;container=1;collapsible=0;childLayout=tableLayout;" vertex="1" parent="1">
          <mxGeometry x="-670" y="1620" width="973" height="53" as="geometry" />
        </mxCell>
        <mxCell id="ztVvOb2c4JuOCDaLwrAS-740" value="" style="shape=partialRectangle;html=1;whiteSpace=wrap;collapsible=0;dropTarget=0;pointerEvents=0;fillColor=none;top=0;left=0;bottom=0;right=0;points=[[0,0.5],[1,0.5]];portConstraint=eastwest;" vertex="1" parent="ztVvOb2c4JuOCDaLwrAS-739">
          <mxGeometry width="973" height="27" as="geometry" />
        </mxCell>
        <mxCell id="ztVvOb2c4JuOCDaLwrAS-741" value="account_id" style="shape=partialRectangle;html=1;whiteSpace=wrap;connectable=0;fillColor=none;top=0;left=0;bottom=0;right=0;overflow=hidden;" vertex="1" parent="ztVvOb2c4JuOCDaLwrAS-740">
          <mxGeometry width="162" height="27" as="geometry" />
        </mxCell>
        <mxCell id="ztVvOb2c4JuOCDaLwrAS-742" value="balance_id" style="shape=partialRectangle;html=1;whiteSpace=wrap;connectable=0;fillColor=none;top=0;left=0;bottom=0;right=0;overflow=hidden;" vertex="1" parent="ztVvOb2c4JuOCDaLwrAS-740">
          <mxGeometry x="162" width="161" height="27" as="geometry" />
        </mxCell>
        <mxCell id="ztVvOb2c4JuOCDaLwrAS-912" value="accounting_date_time" style="shape=partialRectangle;html=1;whiteSpace=wrap;connectable=0;fillColor=none;top=0;left=0;bottom=0;right=0;overflow=hidden;" vertex="1" parent="ztVvOb2c4JuOCDaLwrAS-740">
          <mxGeometry x="323" width="163" height="27" as="geometry" />
        </mxCell>
        <mxCell id="ztVvOb2c4JuOCDaLwrAS-743" value="post_date_time" style="shape=partialRectangle;html=1;whiteSpace=wrap;connectable=0;fillColor=none;top=0;left=0;bottom=0;right=0;overflow=hidden;" vertex="1" parent="ztVvOb2c4JuOCDaLwrAS-740">
          <mxGeometry x="486" width="163" height="27" as="geometry" />
        </mxCell>
        <mxCell id="ztVvOb2c4JuOCDaLwrAS-744" value="&lt;span&gt;invalidated_at_date_time&lt;/span&gt;" style="shape=partialRectangle;html=1;whiteSpace=wrap;connectable=0;fillColor=none;top=0;left=0;bottom=0;right=0;overflow=hidden;" vertex="1" parent="ztVvOb2c4JuOCDaLwrAS-740">
          <mxGeometry x="649" width="162" height="27" as="geometry" />
        </mxCell>
        <mxCell id="ztVvOb2c4JuOCDaLwrAS-745" value="balance" style="shape=partialRectangle;html=1;whiteSpace=wrap;connectable=0;fillColor=none;top=0;left=0;bottom=0;right=0;overflow=hidden;" vertex="1" parent="ztVvOb2c4JuOCDaLwrAS-740">
          <mxGeometry x="811" width="162" height="27" as="geometry" />
        </mxCell>
        <mxCell id="ztVvOb2c4JuOCDaLwrAS-746" value="" style="shape=partialRectangle;html=1;whiteSpace=wrap;collapsible=0;dropTarget=0;pointerEvents=0;fillColor=none;top=0;left=0;bottom=0;right=0;points=[[0,0.5],[1,0.5]];portConstraint=eastwest;" vertex="1" parent="ztVvOb2c4JuOCDaLwrAS-739">
          <mxGeometry y="27" width="973" height="26" as="geometry" />
        </mxCell>
        <mxCell id="ztVvOb2c4JuOCDaLwrAS-747" value="111111" style="shape=partialRectangle;html=1;whiteSpace=wrap;connectable=0;fillColor=#d5e8d4;top=0;left=0;bottom=0;right=0;overflow=hidden;strokeColor=#82b366;" vertex="1" parent="ztVvOb2c4JuOCDaLwrAS-746">
          <mxGeometry width="162" height="26" as="geometry" />
        </mxCell>
        <mxCell id="ztVvOb2c4JuOCDaLwrAS-748" style="shape=partialRectangle;html=1;whiteSpace=wrap;connectable=0;fillColor=#d5e8d4;top=0;left=0;bottom=0;right=0;overflow=hidden;strokeColor=#82b366;" vertex="1" parent="ztVvOb2c4JuOCDaLwrAS-746">
          <mxGeometry x="162" width="161" height="26" as="geometry" />
        </mxCell>
        <mxCell id="ztVvOb2c4JuOCDaLwrAS-913" value="&lt;span&gt;2018-01-01 00:00&lt;/span&gt;" style="shape=partialRectangle;html=1;whiteSpace=wrap;connectable=0;fillColor=#d5e8d4;top=0;left=0;bottom=0;right=0;overflow=hidden;strokeColor=#82b366;" vertex="1" parent="ztVvOb2c4JuOCDaLwrAS-746">
          <mxGeometry x="323" width="163" height="26" as="geometry" />
        </mxCell>
        <mxCell id="ztVvOb2c4JuOCDaLwrAS-749" value="2018-01-01 01:01" style="shape=partialRectangle;html=1;whiteSpace=wrap;connectable=0;fillColor=#d5e8d4;top=0;left=0;bottom=0;right=0;overflow=hidden;strokeColor=#82b366;" vertex="1" parent="ztVvOb2c4JuOCDaLwrAS-746">
          <mxGeometry x="486" width="163" height="26" as="geometry" />
        </mxCell>
        <mxCell id="ztVvOb2c4JuOCDaLwrAS-750" style="shape=partialRectangle;html=1;whiteSpace=wrap;connectable=0;fillColor=#d5e8d4;top=0;left=0;bottom=0;right=0;overflow=hidden;strokeColor=#82b366;" vertex="1" parent="ztVvOb2c4JuOCDaLwrAS-746">
          <mxGeometry x="649" width="162" height="26" as="geometry" />
        </mxCell>
        <mxCell id="ztVvOb2c4JuOCDaLwrAS-751" value="-200" style="shape=partialRectangle;html=1;whiteSpace=wrap;connectable=0;fillColor=#d5e8d4;top=0;left=0;bottom=0;right=0;overflow=hidden;strokeColor=#82b366;" vertex="1" parent="ztVvOb2c4JuOCDaLwrAS-746">
          <mxGeometry x="811" width="162" height="26" as="geometry" />
        </mxCell>
        <mxCell id="ztVvOb2c4JuOCDaLwrAS-765" value="&lt;h1&gt;Heading&lt;/h1&gt;&lt;p&gt;Setar data e hora atual&lt;/p&gt;&lt;p&gt;Se conta não tiver balanço calculado, obter do cache os eventos transacton_date_time &amp;lt; data e hora atual e accounting_date_time &amp;lt; data e hora contab.&lt;/p&gt;&lt;p&gt;Se conta tiver balanço calculado, obter do cache os eventos snapshot_date_time &amp;lt;= transacton_date_time &amp;lt; data e hora atual e accounting_date_time &amp;lt; data e hora contab&lt;br&gt;&lt;/p&gt;" style="text;html=1;strokeColor=none;fillColor=none;spacing=5;spacingTop=-20;whiteSpace=wrap;overflow=hidden;rounded=0;" vertex="1" parent="1">
          <mxGeometry x="480" y="1630" width="1090" height="120" as="geometry" />
        </mxCell>
        <mxCell id="ztVvOb2c4JuOCDaLwrAS-916" value="" style="shape=table;html=1;whiteSpace=wrap;startSize=0;container=1;collapsible=0;childLayout=tableLayout;" vertex="1" parent="1">
          <mxGeometry x="-670" y="1770" width="973" height="53" as="geometry" />
        </mxCell>
        <mxCell id="ztVvOb2c4JuOCDaLwrAS-917" value="" style="shape=partialRectangle;html=1;whiteSpace=wrap;collapsible=0;dropTarget=0;pointerEvents=0;fillColor=none;top=0;left=0;bottom=0;right=0;points=[[0,0.5],[1,0.5]];portConstraint=eastwest;" vertex="1" parent="ztVvOb2c4JuOCDaLwrAS-916">
          <mxGeometry width="973" height="27" as="geometry" />
        </mxCell>
        <mxCell id="ztVvOb2c4JuOCDaLwrAS-918" value="account_id" style="shape=partialRectangle;html=1;whiteSpace=wrap;connectable=0;fillColor=none;top=0;left=0;bottom=0;right=0;overflow=hidden;" vertex="1" parent="ztVvOb2c4JuOCDaLwrAS-917">
          <mxGeometry width="162" height="27" as="geometry" />
        </mxCell>
        <mxCell id="ztVvOb2c4JuOCDaLwrAS-919" value="balance_id" style="shape=partialRectangle;html=1;whiteSpace=wrap;connectable=0;fillColor=none;top=0;left=0;bottom=0;right=0;overflow=hidden;" vertex="1" parent="ztVvOb2c4JuOCDaLwrAS-917">
          <mxGeometry x="162" width="161" height="27" as="geometry" />
        </mxCell>
        <mxCell id="ztVvOb2c4JuOCDaLwrAS-920" value="&lt;span&gt;accounting_date_time&lt;/span&gt;" style="shape=partialRectangle;html=1;whiteSpace=wrap;connectable=0;fillColor=none;top=0;left=0;bottom=0;right=0;overflow=hidden;" vertex="1" parent="ztVvOb2c4JuOCDaLwrAS-917">
          <mxGeometry x="323" width="163" height="27" as="geometry" />
        </mxCell>
        <mxCell id="ztVvOb2c4JuOCDaLwrAS-921" value="post_date_time" style="shape=partialRectangle;html=1;whiteSpace=wrap;connectable=0;fillColor=none;top=0;left=0;bottom=0;right=0;overflow=hidden;" vertex="1" parent="ztVvOb2c4JuOCDaLwrAS-917">
          <mxGeometry x="486" width="163" height="27" as="geometry" />
        </mxCell>
        <mxCell id="ztVvOb2c4JuOCDaLwrAS-922" value="&lt;span&gt;invalidated_at_date_time&lt;/span&gt;" style="shape=partialRectangle;html=1;whiteSpace=wrap;connectable=0;fillColor=none;top=0;left=0;bottom=0;right=0;overflow=hidden;" vertex="1" parent="ztVvOb2c4JuOCDaLwrAS-917">
          <mxGeometry x="649" width="162" height="27" as="geometry" />
        </mxCell>
        <mxCell id="ztVvOb2c4JuOCDaLwrAS-923" value="balance" style="shape=partialRectangle;html=1;whiteSpace=wrap;connectable=0;fillColor=none;top=0;left=0;bottom=0;right=0;overflow=hidden;" vertex="1" parent="ztVvOb2c4JuOCDaLwrAS-917">
          <mxGeometry x="811" width="162" height="27" as="geometry" />
        </mxCell>
        <mxCell id="ztVvOb2c4JuOCDaLwrAS-924" value="" style="shape=partialRectangle;html=1;whiteSpace=wrap;collapsible=0;dropTarget=0;pointerEvents=0;fillColor=none;top=0;left=0;bottom=0;right=0;points=[[0,0.5],[1,0.5]];portConstraint=eastwest;" vertex="1" parent="ztVvOb2c4JuOCDaLwrAS-916">
          <mxGeometry y="27" width="973" height="26" as="geometry" />
        </mxCell>
        <mxCell id="ztVvOb2c4JuOCDaLwrAS-925" value="111111" style="shape=partialRectangle;html=1;whiteSpace=wrap;connectable=0;fillColor=#d5e8d4;top=0;left=0;bottom=0;right=0;overflow=hidden;strokeColor=#82b366;" vertex="1" parent="ztVvOb2c4JuOCDaLwrAS-924">
          <mxGeometry width="162" height="26" as="geometry" />
        </mxCell>
        <mxCell id="ztVvOb2c4JuOCDaLwrAS-926" style="shape=partialRectangle;html=1;whiteSpace=wrap;connectable=0;fillColor=#d5e8d4;top=0;left=0;bottom=0;right=0;overflow=hidden;strokeColor=#82b366;" vertex="1" parent="ztVvOb2c4JuOCDaLwrAS-924">
          <mxGeometry x="162" width="161" height="26" as="geometry" />
        </mxCell>
        <mxCell id="ztVvOb2c4JuOCDaLwrAS-927" value="&lt;span&gt;2018-01-01 00:00&lt;/span&gt;" style="shape=partialRectangle;html=1;whiteSpace=wrap;connectable=0;fillColor=#d5e8d4;top=0;left=0;bottom=0;right=0;overflow=hidden;strokeColor=#82b366;" vertex="1" parent="ztVvOb2c4JuOCDaLwrAS-924">
          <mxGeometry x="323" width="163" height="26" as="geometry" />
        </mxCell>
        <mxCell id="ztVvOb2c4JuOCDaLwrAS-928" value="2018-01-01 01:01" style="shape=partialRectangle;html=1;whiteSpace=wrap;connectable=0;fillColor=#d5e8d4;top=0;left=0;bottom=0;right=0;overflow=hidden;strokeColor=#82b366;" vertex="1" parent="ztVvOb2c4JuOCDaLwrAS-924">
          <mxGeometry x="486" width="163" height="26" as="geometry" />
        </mxCell>
        <mxCell id="ztVvOb2c4JuOCDaLwrAS-929" style="shape=partialRectangle;html=1;whiteSpace=wrap;connectable=0;fillColor=#d5e8d4;top=0;left=0;bottom=0;right=0;overflow=hidden;strokeColor=#82b366;" vertex="1" parent="ztVvOb2c4JuOCDaLwrAS-924">
          <mxGeometry x="649" width="162" height="26" as="geometry" />
        </mxCell>
        <mxCell id="ztVvOb2c4JuOCDaLwrAS-930" value="-200" style="shape=partialRectangle;html=1;whiteSpace=wrap;connectable=0;fillColor=#d5e8d4;top=0;left=0;bottom=0;right=0;overflow=hidden;strokeColor=#82b366;" vertex="1" parent="ztVvOb2c4JuOCDaLwrAS-924">
          <mxGeometry x="811" width="162" height="26" as="geometry" />
        </mxCell>
        <mxCell id="ztVvOb2c4JuOCDaLwrAS-938" value="Em 2018-01-01 03:00" style="text;html=1;strokeColor=none;fillColor=none;align=center;verticalAlign=middle;whiteSpace=wrap;rounded=0;" vertex="1" parent="1">
          <mxGeometry x="-670" y="1730" width="120" height="20" as="geometry" />
        </mxCell>
        <mxCell id="ztVvOb2c4JuOCDaLwrAS-960" value="&lt;h1&gt;Features&lt;/h1&gt;&lt;p&gt;Snapshots diários.&lt;/p&gt;&lt;p&gt;Lançamentos retroativos.&lt;br&gt;&lt;/p&gt;&lt;p&gt;Inativação de lote de lançamentos&lt;/p&gt;" style="text;html=1;strokeColor=none;fillColor=none;spacing=5;spacingTop=-20;whiteSpace=wrap;overflow=hidden;rounded=0;" vertex="1" parent="1">
          <mxGeometry x="480" y="1341" width="520" height="179" as="geometry" />
        </mxCell>
      </root>
    </mxGraphModel>
  </diagram>
</mxfile>
